<svg id="_Layer_" data-name="&lt;Layer&gt;" xmlns="http://www.w3.org/2000/svg" viewBox="0 0 2558.05 1047.33"><path d="M2663.33,1398.36H229s-2.11-20.11-2.73-52.57c-.36-18.91-.22-42,1.13-67.8q.18-3.16.36-6.39c.71-11.82,1.67-24.16,3-36.88l.36-3.39c1.4-13.31,3.16-27.13,5.34-41.32,1.78-11.55,3.82-23.35,6.21-35.34.17-.84.34-1.69.52-2.53q1.84-9.17,4-18.44.83-3.65,1.69-7.3c1.14-4.76,2.32-9.55,3.58-14.34q4.53-17.61,10.15-35.43c.38-1.2.76-2.42,1.14-3.64q2.56-7.93,5.34-15.89,4.23-12.12,9-24.21,3-7.58,6.24-15.14C351.5,860.64,493.72,714.48,790.68,717.42c638.06,6.33,589.09-339.85,1035.72-362,181.9-9,292.81,154.33,260.09,387.7C2031.17,1137.89,2655.23,851.7,2663.33,1398.36Z" transform="translate(-135.76 -355.05)" style="fill:#fcecdb"/><path d="M1977.46,1394.66s0-11.49,1.64-15.32,7.65-19.38,7.65-19.38h23.48s4.37,14.19,4.65,18.84,0,15.86,0,15.86Z" transform="translate(-135.76 -355.05)" style="fill:#233862"/><path d="M2126.57,1394.66s0-11.49-1.64-15.32-7.65-19.38-7.65-19.38H2093.8s-4.37,14.19-4.64,18.84,0,15.86,0,15.86Z" transform="translate(-135.76 -355.05)" style="fill:#233862"/><path d="M2032.49,749.38s-.83,25.6-4.11,37.07l-25.93,18.09,97.62,14.61L2076.79,787s-7-34.33-3.34-47S2032.49,749.38,2032.49,749.38Z" transform="translate(-135.76 -355.05)" style="fill:#ffb27d"/><path d="M2032.35,752.92s7.71,18.58,22.26,18.17,17.85-16.85,17.85-16.85Z" transform="translate(-135.76 -355.05)" style="fill:#ed985f"/><path d="M2023.67,737.87s-4.7-23.44-8-30.54-6-38.77,30.31-40.41c0,0,13.93,1.64,21.58-3,0,0,0,4.64-1.91,6.28a24.12,24.12,0,0,1,22.39,7.92c9.83,10.92-6.56,49.15-5.74,58.16Z" transform="translate(-135.76 -355.05)" style="fill:#2c3a64"/><path d="M2052.94,763.91c-10.54-.18-29.93-14.21-29.93-31.58V705.22c0-6.35,4.42-11.54,9.83-11.54H2073c5.4,0,9.83,5.19,9.83,11.54v25.57C2082.87,749,2065,764.13,2052.94,763.91Z" transform="translate(-135.76 -355.05)" style="fill:#ffb27d"/><path d="M2023,719.69s.06-16.29,13-18.79,41.78,7.94,45.87-3.94-55.81-11.68-58.83-4.1S2023,719.69,2023,719.69Z" transform="translate(-135.76 -355.05)" style="fill:#2c3a64"/><path d="M1980.41,996.52s4.11,125.46-2,197,.05,171.21.05,171.21,19.65,10.83,40.95,0c0,0,23.35-138.3,23.21-171.21-.16-35,25.42-191.58,25.42-191.58Z" transform="translate(-135.76 -355.05)" style="fill:#b64c41"/><path d="M2125.72,1364.78s-19.64,10.84-40.94,0c0,0-23.36-138.3-23.21-171.21.06-14.81-4.46-51.29-9.71-88.48-7.18-50.88-15.72-103.1-15.72-103.1l91-5.68s-7.51,125.68-1.36,197.26S2125.72,1364.78,2125.72,1364.78Z" transform="translate(-135.76 -355.05)" style="fill:#b64c41"/><path d="M2126,1017.39s-38.79,7.51-74.18,7.51a358,358,0,0,1-45.55-3.48c-14.77-2-25.35-4-25.35-4s-7.86.69-3.22-38.08c3.53-29.51,2.43-56.15,1.64-83.56-.09-3,0-6.65.16-10.67,1.51-32,11.18-89.48,18.54-92.57,0,0,11-4.07,30.3-6.06,0,.38,11.23,16.8,24.56,18.64,8.28-3.28,14.79-6.07,23.85-18.1a259.8,259.8,0,0,1,37.38,7.2s1.39,6.1,6.65,111.84C2122.91,947.92,2137.21,1017.53,2126,1017.39Z" transform="translate(-135.76 -355.05)" style="fill:#739af0"/><path d="M2061.57,1193.57c.06-14.81-4.46-51.29-9.71-88.48,5.45-22.21,18.72-43.59,18.72-43.59C2087.37,1108.6,2061.57,1193.57,2061.57,1193.57Z" transform="translate(-135.76 -355.05)" style="fill:#aa413e"/><path d="M1943.53,918.38c-.92.77,2.3,8.76,7,19.18,9.79,21.41,26,53,26,53a93.57,93.57,0,0,1-4.93,14.43c-27.33-21.47-45-39.74-56.2-53.74-15.81-19.71-19-31-19-31,60.85-123.86,103.67-128.43,103.67-128.43L1995,873.7S1946.35,916,1943.53,918.38Z" transform="translate(-135.76 -355.05)" style="fill:#2b478b"/><path d="M2136.92,1049.77c-9.07,18.15-43.28,17.49-43.28,17.49-6.28-48.22-7.67-279-7.67-279,11.57,1.39,27,5.53,27,5.53,11.11,21.49,15,61.71,16,90.06.53,15.87.14,28-.45,31.07-.86,4.52.23,26.09,1.9,50.7C2133,1004,2136.92,1049.77,2136.92,1049.77Z" transform="translate(-135.76 -355.05)" style="fill:#2b478b"/><path d="M2019.39,787.6s-2.3,231.43-8.57,279.66c0,0-34.2.66-43.27-17.49,0,0,14-142.43,11.83-154-1.54-8.08,2.46-74.46,17.25-103C1996.63,792.76,2009.57,788.75,2019.39,787.6Z" transform="translate(-135.76 -355.05)" style="fill:#2b478b"/><path d="M1973.37,992.14s14.75-13.65,20.75-6,7.1,19.66,2.46,18.84-14.2-5.18-15.57-3-7.48,6.36-9.33,3S1973.37,992.14,1973.37,992.14Z" transform="translate(-135.76 -355.05)" style="fill:#ffb27d"/><path d="M1976.61,990.58a93.57,93.57,0,0,1-4.93,14.43c-27.33-21.47-45-39.74-56.2-53.74,8.48-.63,20.86-3.67,35.1-13.71C1960.37,959,1976.61,990.58,1976.61,990.58Z" transform="translate(-135.76 -355.05)" style="fill:#ffb27d"/><path d="M2211.63,920.27s-3.25,11.29-19.06,31c-11.24,14-28.86,32.27-56.19,53.74a93.57,93.57,0,0,1-4.93-14.43s16.24-31.61,26-53c4.75-10.42,8-18.41,7.05-19.18-2.18-1.82-31.93-27.67-45.2-39.19L2113,873.7l-3-80.64S2150.78,796.41,2211.63,920.27Z" transform="translate(-135.76 -355.05)" style="fill:#2b478b"/><path d="M2134.68,992.14s-14.74-13.65-20.75-6-7.1,19.66-2.46,18.84,14.2-5.18,15.57-3,7.48,6.36,9.34,3S2134.68,992.14,2134.68,992.14Z" transform="translate(-135.76 -355.05)" style="fill:#ffb27d"/><path d="M2131.44,990.58a93.57,93.57,0,0,0,4.93,14.43c27.33-21.47,45-39.74,56.2-53.74-8.48-.63-20.86-3.67-35.1-13.71C2147.69,959,2131.44,990.58,2131.44,990.58Z" transform="translate(-135.76 -355.05)" style="fill:#ffb27d"/><path d="M2164.52,918.38c-2.18-1.82-31.93-27.67-45.2-39.19,0,0,13.25-9.93,21.44,4.54S2164.52,918.38,2164.52,918.38Z" transform="translate(-135.76 -355.05)" style="fill:#233862"/><path d="M2211.63,920.27s-3.25,11.29-19.06,31C2174.27,951,2211.63,920.27,2211.63,920.27Z" transform="translate(-135.76 -355.05)" style="fill:#233862"/><path d="M2039.29,731.11c-3.85,0-11.55-.85-12.9-7.54a6.06,6.06,0,0,1,1.11-5.21,7.16,7.16,0,0,1,5.63-2.39H2045c2.25,0,3.83.65,4.68,1.92,1.43,2.15.33,5.37-.21,6.66-1.84,4.4-4.38,6.45-8,6.46A19.94,19.94,0,0,1,2039.29,731.11Zm-6.16-14.36a6.39,6.39,0,0,0-5,2.1,5.3,5.3,0,0,0-.94,4.56c.69,3.43,3.27,5.63,7.66,6.52a23.62,23.62,0,0,0,6.56.31h0c3.26,0,5.57-1.91,7.28-6,.39-.91,1.54-4,.28-5.93-.7-1-2-1.57-4-1.57Z" transform="translate(-135.76 -355.05)" style="fill:#b64c41"/><path d="M2066.59,731.11a19.94,19.94,0,0,1-2.16-.1c-3.61,0-6.14-2.06-8-6.46-.54-1.29-1.64-4.51-.21-6.66.85-1.27,2.42-1.92,4.67-1.92h11.84a7.16,7.16,0,0,1,5.63,2.39,6.06,6.06,0,0,1,1.1,5.21C2078.14,730.26,2070.44,731.11,2066.59,731.11Zm-5.68-14.36c-2,0-3.32.53-4,1.57-1.26,1.89-.11,5,.27,5.93,1.71,4.08,4,6,7.29,6h0a23.7,23.7,0,0,0,6.57-.31c4.39-.89,7-3.09,7.66-6.52a5.3,5.3,0,0,0-.94-4.56,6.39,6.39,0,0,0-5-2.1Z" transform="translate(-135.76 -355.05)" style="fill:#b64c41"/><path d="M2048.7,721.44a.47.47,0,0,1-.19-.89c.19-.09,4.83-2.17,8.95,0a.47.47,0,0,1,.19.63.46.46,0,0,1-.63.19c-3.72-2-8.08,0-8.13,0A.41.41,0,0,1,2048.7,721.44Z" transform="translate(-135.76 -355.05)" style="fill:#b64c41"/><path d="M2130.38,965.59c-19.38-54.64-11.06-86.4-11.06-86.4l9.61,4.63c.53,15.87.14,28-.45,31.07C2127.62,919.41,2128.71,941,2130.38,965.59Z" transform="translate(-135.76 -355.05)" style="fill:#233862"/><path d="M1214.67,732.33s-22.86-41.47-1.89-59.77,57.87-7.39,64.66,0,15.84,28.37-2.91,58.23Z" transform="translate(-135.76 -355.05)" style="fill:#2c3a64"/><path d="M1169.12,1394.66s0-11.49,1.64-15.32,7.65-19.38,7.65-19.38h23.48s4.37,14.19,4.64,18.84,0,15.86,0,15.86Z" transform="translate(-135.76 -355.05)" style="fill:#233862"/><path d="M1318.23,1394.66s0-11.49-1.64-15.32-7.65-19.38-7.65-19.38h-23.48s-4.37,14.19-4.64,18.84,0,15.86,0,15.86Z" transform="translate(-135.76 -355.05)" style="fill:#233862"/><path d="M1224.14,749.38s-.82,25.6-4.1,37.07l-25.93,18.09,97.62,14.61L1268.45,787s-7-34.33-3.35-47S1224.14,749.38,1224.14,749.38Z" transform="translate(-135.76 -355.05)" style="fill:#b56f40"/><path d="M1224,752.92s7.72,18.58,22.26,18.17,17.85-16.85,17.85-16.85Z" transform="translate(-135.76 -355.05)" style="fill:#99592e"/><path d="M1264.7,693.68h-40.2c-5.41,0-9.83,5.19-9.83,11.53v27.12c0,17.37,19.39,31.4,29.93,31.58,12.08.22,29.93-14.9,29.93-33.12V705.21C1274.53,698.87,1270.1,693.68,1264.7,693.68Z" transform="translate(-135.76 -355.05)" style="fill:#b56f40"/><path d="M1172.07,996.52s4.1,125.46-2,197,0,171.21,0,171.21,19.64,10.83,40.94,0c0,0,23.36-138.3,23.21-171.21-.15-35,25.43-191.58,25.43-191.58Z" transform="translate(-135.76 -355.05)" style="fill:#ee9849"/><path d="M1317.38,1364.78s-19.65,10.84-41,0c0,0-23.35-138.3-23.2-171.21.06-14.81-4.46-51.29-9.71-88.48-7.19-50.88-15.72-103.1-15.72-103.1l91-5.68s-7.51,125.68-1.36,197.26S1317.38,1364.78,1317.38,1364.78Z" transform="translate(-135.76 -355.05)" style="fill:#ee9849"/><path d="M1301.63,793.06v.05a258.09,258.09,0,0,0-33.18-6.12c-9.06,12-15.57,14.82-23.85,18.1-13.33-1.84-24.56-18.26-24.56-18.64a149.55,149.55,0,0,0-28.29,5.39c-.79.1-43.38,5.72-103.66,128.43,0,0,3.24,11.29,19.05,31,11.25,14,28.87,32.27,56.2,53.74a93.57,93.57,0,0,0,4.93-14.43s-16.25-31.61-26-53c-4.75-10.42-8-18.41-7-19.18,1.76-1.47,21.41-18.53,35.92-31.13-.11,3.15-.15,6-.07,8.5.78,27.41,1.89,54-1.64,83.56-4.65,38.77,3.22,38.08,3.22,38.08s10.58,2.07,25.34,4a358.29,358.29,0,0,0,45.56,3.48c35.39,0,74.18-7.51,74.18-7.51,11.16.14-3.13-69.47-5.22-111.36-.49-9.73-.94-18.6-1.36-26.72,13.34,11.59,42.88,37.25,45.06,39.07.93.77-2.3,8.76-7,19.18-9.78,21.41-26,53-26,53A92.82,92.82,0,0,0,1328,1005c27.32-21.47,44.94-39.74,56.19-53.74,15.81-19.71,19.06-31,19.06-31C1342.44,796.41,1301.63,793.06,1301.63,793.06Z" transform="translate(-135.76 -355.05)" style="fill:#74acbe"/><path d="M1198,1021.42c-14.76-2-25.34-4-25.34-4s-7.87.69-3.22-38.08c3.53-29.51,2.42-56.15,1.64-83.56-.09-3,0-6.65.16-10.67,2.26,3.63,27.46,44.32,34.24,74.57C1210.38,981.71,1202.94,1007.69,1198,1021.42Z" transform="translate(-135.76 -355.05)" style="fill:#578e9b"/><path d="M1253.23,1193.57c.06-14.81-4.46-51.29-9.71-88.48,5.45-22.21,18.72-43.59,18.72-43.59C1279,1108.6,1253.23,1193.57,1253.23,1193.57Z" transform="translate(-135.76 -355.05)" style="fill:#e58638"/><path d="M1165,992.14s14.74-13.65,20.75-6,7.1,19.66,2.46,18.84-14.2-5.18-15.57-3-7.48,6.36-9.34,3S1165,992.14,1165,992.14Z" transform="translate(-135.76 -355.05)" style="fill:#b56f40"/><path d="M1168.27,990.58a93.57,93.57,0,0,1-4.93,14.43c-27.33-21.47-44.95-39.74-56.2-53.74,8.48-.63,20.86-3.67,35.1-13.71C1152,959,1168.27,990.58,1168.27,990.58Z" transform="translate(-135.76 -355.05)" style="fill:#b56f40"/><path d="M1326.34,992.14s-14.74-13.65-20.75-6-7.1,19.66-2.46,18.84,14.2-5.18,15.57-3,7.48,6.36,9.34,3S1326.34,992.14,1326.34,992.14Z" transform="translate(-135.76 -355.05)" style="fill:#b56f40"/><path d="M1323.1,990.58A93.57,93.57,0,0,0,1328,1005c27.33-21.47,45-39.74,56.2-53.74-8.48-.63-20.86-3.67-35.11-13.71C1339.34,959,1323.1,990.58,1323.1,990.58Z" transform="translate(-135.76 -355.05)" style="fill:#b56f40"/><path d="M1356.18,918.38c-2.19-1.82-31.93-27.67-45.2-39.19,0,0,13.25-9.93,21.44,4.54S1356.18,918.38,1356.18,918.38Z" transform="translate(-135.76 -355.05)" style="fill:#578e9b"/><path d="M1403.29,920.27s-3.25,11.29-19.06,31C1365.93,951,1403.29,920.27,1403.29,920.27Z" transform="translate(-135.76 -355.05)" style="fill:#578e9b"/><path d="M1214.67,716.21s7.31-22.32,31.27-18.84,26,8.6,28.59,14.54S1282,690.2,1282,690.2l-28.27-8.4s-34.2,3.89-36.65,9.63l-2.46,5.73Z" transform="translate(-135.76 -355.05)" style="fill:#2c3a64"/><path d="M1242.64,673s-25.33-23-14.46-27.93S1242.64,673,1242.64,673Z" transform="translate(-135.76 -355.05)" style="fill:#2c3a64"/><path d="M1241.62,673.63s-32-12.07-23.73-20.64S1241.62,673.63,1241.62,673.63Z" transform="translate(-135.76 -355.05)" style="fill:#2c3a64"/><path d="M1243.71,674.29s-5.24-29.68,7.42-29.46S1243.71,674.29,1243.71,674.29Z" transform="translate(-135.76 -355.05)" style="fill:#2c3a64"/><path d="M1245.49,672.36s13.71-31.93,26.48-28.94S1245.49,672.36,1245.49,672.36Z" transform="translate(-135.76 -355.05)" style="fill:#2c3a64"/><path d="M1244.79,674.29s21.82-27,33.31-20.71S1244.79,674.29,1244.79,674.29Z" transform="translate(-135.76 -355.05)" style="fill:#2c3a64"/><path d="M2618.58,1393.44h-84c-4.5-3.81,3.11-12.48,11.07-13.06,3.45-.27,7.82.46,12.82,1.51,1.15-15.35,7.75-84.35,32.62-81.57,28,3.1,0,30.38-7.9,46.54-5.86,12-12,29.11-14.86,37.21,2.27.49,4.62,1,7,1.42,3.71-11.38,17.5-49.66,35-47.43,20.59,2.61,12.31,18-2.28,27.07-10.71,6.7-23.86,16.22-30.11,20.82a89.7,89.7,0,0,0,16.43,1.32C2608.84,1386.92,2615.86,1391.16,2618.58,1393.44Z" transform="translate(-135.76 -355.05)" style="fill:#82b378"/><path d="M326.67,1388.84c-5.14-8.07-20.6-29-41.2-26.25-22.44,3,24.78,17.82,39.24,26.31a23.9,23.9,0,0,1-8-.94c-9.66-3.44-26.22,3.16-31.51,5.48h92a14.58,14.58,0,0,0-6.58-8.41c-1.51-.93-4.55-1-8.47-.76,5.47-6.45,9.27-27-6-21.75-11.13,3.87-11.1,16.46-10,23.91-2.37.37-4.77.75-7.14,1.09-4.58-23.35-20.79-91.78-53.63-93.6-33.3-1.85,28.23,71,48.72,94.25C331.54,1388.49,329,1388.73,326.67,1388.84Z" transform="translate(-135.76 -355.05)" style="fill:#82b378"/><path d="M1009.41,1394.66s0-11.49,1.64-15.32,7.65-19.38,7.65-19.38h23.48s4.37,14.19,4.64,18.84,0,15.86,0,15.86Z" transform="translate(-135.76 -355.05)" style="fill:#233862"/><path d="M1158.52,1394.66s0-11.49-1.64-15.32-7.65-19.38-7.65-19.38h-23.48s-4.37,14.19-4.64,18.84,0,15.86,0,15.86Z" transform="translate(-135.76 -355.05)" style="fill:#233862"/><path d="M1064.44,749.38s-.83,25.6-4.11,37.07l-25.93,18.09L1132,819.15,1108.74,787s-7-34.33-3.34-47S1064.44,749.38,1064.44,749.38Z" transform="translate(-135.76 -355.05)" style="fill:#ffb27d"/><path d="M1064.3,752.92s7.71,18.58,22.26,18.17,17.84-16.85,17.84-16.85Z" transform="translate(-135.76 -355.05)" style="fill:#ed985f"/><path d="M1055.62,737.87s-4.7-23.44-8-30.54-6-38.77,30.31-40.41c0,0,13.93,1.64,21.58-3,0,0,0,4.64-1.92,6.28a24.13,24.13,0,0,1,22.4,7.92c9.83,10.92-6.56,49.15-5.74,58.16Z" transform="translate(-135.76 -355.05)" style="fill:#b64c41"/><path d="M1105,693.68h-40.2c-5.41,0-9.83,5.19-9.83,11.53v27.12c0,17.37,19.39,31.4,29.93,31.58,12.08.22,29.93-14.9,29.93-33.12V705.21C1114.82,698.87,1110.39,693.68,1105,693.68Z" transform="translate(-135.76 -355.05)" style="fill:#ffb27d"/><path d="M1055,719.69s.06-16.29,13-18.79,41.78,7.94,45.87-3.94-55.81-11.68-58.83-4.1S1055,719.69,1055,719.69Z" transform="translate(-135.76 -355.05)" style="fill:#b64c41"/><path d="M1012.36,996.52s4.11,125.46-2,197,0,171.21,0,171.21,19.65,10.83,40.95,0c0,0,23.35-138.3,23.21-171.21-.16-35,25.42-191.58,25.42-191.58Z" transform="translate(-135.76 -355.05)" style="fill:#2b478b"/><path d="M1157.67,1364.78s-19.64,10.84-40.94,0c0,0-23.36-138.3-23.21-171.21.06-14.81-4.46-51.29-9.71-88.48-7.18-50.88-15.72-103.1-15.72-103.1l91-5.68s-7.5,125.68-1.36,197.26S1157.67,1364.78,1157.67,1364.78Z" transform="translate(-135.76 -355.05)" style="fill:#2b478b"/><path d="M1038.26,1021.42c-14.77-2-25.35-4-25.35-4s-7.86.69-3.22-38.08c3.53-29.51,2.43-56.15,1.64-83.56-.09-3,0-6.65.16-10.67,2.26,3.63,27.46,44.32,34.25,74.57C1050.67,981.71,1043.23,1007.69,1038.26,1021.42Z" transform="translate(-135.76 -355.05)" style="fill:#27437c"/><path d="M1141.92,793.06v.05a257.91,257.91,0,0,0-33.19-6.12c-9.06,12-15.57,14.82-23.85,18.1-13.33-1.84-24.56-18.26-24.56-18.64a149.55,149.55,0,0,0-28.29,5.39c-.79.1-43.38,5.73-103.66,128.43,0,0,3.24,11.29,19,31,11.25,14,28.87,32.27,56.2,53.74a93.57,93.57,0,0,0,4.93-14.43s-16.24-31.61-26-53c-4.76-10.42-8-18.41-7.06-19.18,1.76-1.47,21.41-18.53,35.92-31.13-.11,3.15-.14,6-.07,8.5.79,27.41,1.89,54-1.64,83.56-4.64,38.77,3.22,38.08,3.22,38.08s10.58,2.07,25.35,4a358,358,0,0,0,45.55,3.48c35.39,0,74.18-7.51,74.18-7.51,11.16.14-3.13-69.47-5.22-111.36-.48-9.73-.93-18.6-1.36-26.72,13.35,11.59,42.88,37.25,45.06,39.07.93.77-2.3,8.76-7,19.18-9.78,21.41-26,53-26,53a93.57,93.57,0,0,0,4.93,14.43c27.33-21.47,45-39.74,56.19-53.74,15.81-19.71,19.06-31,19.06-31C1182.73,796.41,1141.92,793.06,1141.92,793.06Z" transform="translate(-135.76 -355.05)" style="fill:#2f5196"/><path d="M1093.52,1193.57c.06-14.81-4.46-51.29-9.71-88.48,5.45-22.21,18.72-43.59,18.72-43.59C1119.32,1108.6,1093.52,1193.57,1093.52,1193.57Z" transform="translate(-135.76 -355.05)" style="fill:#233862"/><path d="M1005.32,992.14s14.74-13.65,20.75-6,7.1,19.66,2.46,18.84-14.2-5.18-15.57-3-7.48,6.36-9.33,3S1005.32,992.14,1005.32,992.14Z" transform="translate(-135.76 -355.05)" style="fill:#ffb27d"/><path d="M1008.56,990.58a93.57,93.57,0,0,1-4.93,14.43c-27.33-21.47-45-39.74-56.2-53.74,8.48-.63,20.86-3.67,35.11-13.71C992.32,959,1008.56,990.58,1008.56,990.58Z" transform="translate(-135.76 -355.05)" style="fill:#ffb27d"/><path d="M1166.63,992.14s-14.74-13.65-20.75-6-7.1,19.66-2.46,18.84,14.2-5.18,15.57-3,7.48,6.36,9.34,3S1166.63,992.14,1166.63,992.14Z" transform="translate(-135.76 -355.05)" style="fill:#ffb27d"/><path d="M1163.39,990.58a93.57,93.57,0,0,0,4.93,14.43c27.33-21.47,45-39.74,56.2-53.74-8.48-.63-20.86-3.67-35.1-13.71C1179.64,959,1163.39,990.58,1163.39,990.58Z" transform="translate(-135.76 -355.05)" style="fill:#ffb27d"/><path d="M1196.47,918.38c-2.18-1.82-31.93-27.67-45.2-39.19,0,0,13.25-9.93,21.44,4.54S1196.47,918.38,1196.47,918.38Z" transform="translate(-135.76 -355.05)" style="fill:#2b478b"/><path d="M1243.58,920.27s-3.25,11.29-19.06,31C1206.22,951,1243.58,920.27,1243.58,920.27Z" transform="translate(-135.76 -355.05)" style="fill:#2b478b"/><path d="M1061.69,780.21a10.38,10.38,0,0,0-5.56,6.72s17.39,17.89,28.76,18.16Z" transform="translate(-135.76 -355.05)" style="fill:#ee9849"/><path d="M1084.89,805.09l22.44-25.78s4.64,3.05,4.57,8.07C1111.9,787.38,1094.54,805.77,1084.89,805.09Z" transform="translate(-135.76 -355.05)" style="fill:#ee9849"/><path d="M1080.85,803.19s-17.13,147.87-11.17,165.89A123.12,123.12,0,0,0,1080.13,992a6.08,6.08,0,0,0,10.51,0c4.54-7.9,10.49-19.33,10.49-25.13,0-9.39-13-163.77-13-163.77Z" transform="translate(-135.76 -355.05)" style="fill:#ee9849"/><path d="M1076.36,795.94s10.36-1,16.66-.4a1.75,1.75,0,0,1,1.33,2.6c-1.76,3.18-5.37,8.69-9.14,8.69C1079.92,806.83,1071.67,796.31,1076.36,795.94Z" transform="translate(-135.76 -355.05)" style="fill:#e58638"/><path d="M1729.24,730s-9.62-27.33-10.13-34.43,2.68-27.58,26.34-29.76,32.47-4.71,32.47-4.71l-4.51,5.32a16.91,16.91,0,0,1,13.43,2.46c6.85,4.51,10.33,17.82,9.3,29.29s-10,24.09-10.1,28.83S1729.24,730,1729.24,730Z" transform="translate(-135.76 -355.05)" style="fill:#233862"/><path d="M1664.72,1013.59s-.55,6.25-7.06,19.83c0,0-3,9.23,16.56,23.08s.54-42.91.54-42.91Z" transform="translate(-135.76 -355.05)" style="fill:#d9935c"/><path d="M1733.71,772.39s-11,58.7-22.93,120c-13,66.66-27.17,136.41-29.72,137.25-4.88,1.63-12.36-4.75-15.62-12.9-2.62-6.55-7.11-60.4-4-95.2a171.51,171.51,0,0,1,2.57-19.78c4.88-22,6.37-99.79,21-112S1733.71,772.39,1733.71,772.39Z" transform="translate(-135.76 -355.05)" style="fill:#d9935c"/><path d="M1733.71,772.39s-6.33,33.83-14.6,77c-2.62,13.69-5.45,28.3-8.33,43.07-11.72,23-21.78,38.59-24.88,35.65-6.34-6-17.47-6.72-24.51-6.5a171.51,171.51,0,0,1,2.57-19.78c.38-1.74.75-3.82,1.1-6.2,4.1-27.67,6.42-94.56,19.93-105.81C1699.65,777.55,1733.71,772.39,1733.71,772.39Z" transform="translate(-135.76 -355.05)" style="fill:#739af0"/><path d="M1719.11,849.34c-2.62,13.69-5.45,28.3-8.33,43.07-11.72,23-21.78,38.59-24.88,35.65-6.34-6-17.47-6.72-24.51-6.5a171.51,171.51,0,0,1,2.57-19.78c.38-1.74.75-3.82,1.1-6.2l35.14-84.81Z" transform="translate(-135.76 -355.05)" style="fill:#4a75cb"/><path d="M1782.34,771.53c.26-11.84.06-26-1.54-37.92l-47.26,7.72s0,14.42.21,30.42h0s-1.29,14.84,17,17S1782.83,783,1782.34,771.53Z" transform="translate(-135.76 -355.05)" style="fill:#d9935c"/><path d="M1733.41,744.25s11.13,22.8,23.9,22.8S1782,745.6,1782,745.6Z" transform="translate(-135.76 -355.05)" style="fill:#cb7d45"/><path d="M1764.91,1398s1.72-13.4,5.7-21.36,29.33-2.9,29.33-2.9,5.06,4.35,6.15,24.62Z" transform="translate(-135.76 -355.05)" style="fill:#233862"/><path d="M1678.57,1397.8c6-3.64,2.56-30.75,2.56-30.75s-27.74-22.2-31.56-5.2-26.36,24.62-39.19,26.7c-8.86,1.44-11.6,6.35-12.45,9.25Z" transform="translate(-135.76 -355.05)" style="fill:#233862"/><path d="M1735,745.93c4.59,3.62,18,7.21,21.94,7.63,0,0,20-4.46,23.6-6.65,5.62-3.4,5.26-10.3,5.55-19.89.34-11.34,1.48-20.26.22-26.8-1.51-7.83-6.47-12.28-20.36-13.49-25.51-2.21-36.13,4.18-36.57,12.73-.12,2.29-.23,4.48-.3,6.55C1728,732.68,1730.12,742.13,1735,745.93Z" transform="translate(-135.76 -355.05)" style="fill:#d9935c"/><path d="M1736,1196.31a128.26,128.26,0,0,0-2,15c-2.57,50.31-42.35,165.35-49.46,168-11,4.15-28.34-4.68-37.41-7.57a7.77,7.77,0,0,1-5.46-8.83c19.7-90.55,26.94-220.94,29.57-298.13,1.33-38.88,8-65.74,8-65.74s97-25.88,97.58,6.86C1777.33,1034.9,1744.69,1148.52,1736,1196.31Z" transform="translate(-135.76 -355.05)" style="fill:#2b478b"/><path d="M1736,1196.31l-64.8-131.5c1.33-38.88,8-65.74,8-65.74s97-25.88,97.58,6.86C1777.33,1034.9,1744.69,1148.52,1736,1196.31Z" transform="translate(-135.76 -355.05)" style="fill:#233862"/><path d="M1714.46,1006l51.28,371.67s22.52,5.43,40,1.08c0,0,15-197.67,13.77-245.45s10.77-127.88-2.75-136.71S1714.46,1006,1714.46,1006Z" transform="translate(-135.76 -355.05)" style="fill:#2b478b"/><path d="M1824.16,996.63a7.65,7.65,0,0,1-7.54,8l-80.81,1.23-59.36.91c-2.78,0,6-22.19,6.19-167.18,0-32.36,50.13-67.17,51.06-67.17h0c0,4.66,7.34,13.26,18.65,14,13.42.88,29.89-5.8,29.89-13.53a35.59,35.59,0,0,1,4.07,5.25c6.7,9.76,20.2,33.57,28.82,75,6.81,32.73,4.19,76.49,9.09,133C1824.58,990.15,1824.06,993.77,1824.16,996.63Z" transform="translate(-135.76 -355.05)" style="fill:#ffa412"/><path d="M1821.18,1005s-10.74,4.81-30.83,9a303.86,303.86,0,0,1-59.74,6c-39.28.25-54.16-13.29-54.16-13.29-2.78,0,6-22.19,6.19-167.18,0-32.36,50.13-67.17,51.06-67.17h0s-1.29,43.09,11.74,55.75c0,0,18.28-14.11,42-54.3,6.7,9.76,19.07,37.84,27.69,79.28a223.89,223.89,0,0,1,3.67,27.52c2.29,28.6,1.78,63.52,5.42,105.43.35,4.08-.17,7.7-.07,10.56C1824.33,1000.94,1825.49,1005,1821.18,1005Z" transform="translate(-135.76 -355.05)" style="fill:#739af0"/><path d="M1821.18,1005s-10.74,4.81-30.83,9c-6.33-9.64-14.29-27-15.39-54.46-1.87-46.36,42.17-106.07,42.17-106.07l1.68,27.15c2.29,28.6,1.78,63.52,5.42,105.43.35,4.08-.17,7.7-.07,10.56C1824.33,1000.94,1825.49,1005,1821.18,1005Z" transform="translate(-135.76 -355.05)" style="fill:#4a75cb"/><rect x="1731.88" y="861.75" width="86.69" height="118.91" transform="translate(-358.53 655.98) rotate(-30)" style="fill:#2b478b"/><path d="M1854.24,944.36s-15.37,1.5-41.66-1.2a400.88,400.88,0,0,1-72.24-14.55l8.37-14.3s34.23-1.51,59.31-5.18a148.91,148.91,0,0,0,16.35-3.15c5.46-1.46-21.61-70-35.26-110.37-3.26-9.63-5.75-17.64-6.86-22.75,0,0,2.39.38,6.14,1.12,10.62,2.1,32.22,7,41.41,14C1842.24,797.36,1873.28,903.38,1854.24,944.36Z" transform="translate(-135.76 -355.05)" style="fill:#d9935c"/><path d="M1749,914.31s-11.59-10.86-16.08-10.86-17.39,4.7-18.71,8.32-1.85,10.14,1.84,11.59,19,5.07,22.94,5.43S1752.71,927,1749,914.31Z" transform="translate(-135.76 -355.05)" style="fill:#d9935c"/><path d="M1854.24,944.36s-15.37,1.5-41.66-1.2c1.45-7.14,2.8-21.09-4.56-34a148.91,148.91,0,0,0,16.35-3.15c5.46-1.46-21.61-70-35.26-110.37-1.09-13-1.66-21.77-1.66-21.77l.94.14c10.62,2.1,32.22,7,41.41,14C1842.24,797.36,1873.28,903.38,1854.24,944.36Z" transform="translate(-135.76 -355.05)" style="fill:#739af0"/><path d="M1745.45,828.14S1782,812,1782.56,810.77s-1.81-11-4.35-13.94c0,0,17.56,1.63,18.65-.54s1.45-20.28,1.45-20.28-6.88-7.24-15.93-8c0,0-7.93,19.65-10.86,25.52C1763.73,809.14,1745.45,828.14,1745.45,828.14Z" transform="translate(-135.76 -355.05)" style="fill:#4a75cb"/><path d="M1736.76,796.29s2.36,18.82,8.69,31.85c0,0-19.1-13.3-20.73-17.64s4.62-12.77,4.62-12.77-11.4-.27-11.68-4.07,3.53-18.73,3.53-18.73,9.81-7.17,12.53-6.89Z" transform="translate(-135.76 -355.05)" style="fill:#4a75cb"/><path d="M1728.8,714.56s1-17,11.54-17.19,28.89-1.24,36.51-8.4-45.3-3.89-45.3-3.89S1725.15,705.55,1728.8,714.56Z" transform="translate(-135.76 -355.05)" style="fill:#233862"/><path d="M1771.16,691.5s13.75,5.59,15.68,14.33C1786.84,705.83,1791.37,673.61,1771.16,691.5Z" transform="translate(-135.76 -355.05)" style="fill:#233862"/><polygon points="748.53 956.41 759.92 1004.38 776.98 1004.29 777.61 956.41 748.53 956.41" style="fill:#ffb27d"/><polygon points="892.04 958.46 924.46 1004.38 937.09 988.17 917.58 952.14 892.04 958.46" style="fill:#ffb27d"/><path d="M911.3,712.48c-6.43-2.12-13.43-1.09-18.21.18a8.36,8.36,0,0,1,3.35-2.5c-3.1.15-9.19,4.48-9.19,4.48-45-7.67-39.16,55.12-35.41,69.22s-10.21,21.77-29.66,37.4c-37.11,29.83-35,59.31-35,59.31.36.12.74.27,1.15.44,1.36-3.89,4.27-11.29,7.64-13a150.77,150.77,0,0,0-2.92,15.14c14.1,6.83,41.12,22.83,60,34.23-.65-2.84-1.35-6.92-.74-9.27l4.36,11.46c10.11,6.12,17.1,10.45,17.1,10.45-3.38-11.32,37.59-83,61.7-106.79,4.75-11.32,3.61-29.4,3.51-30.82,1.64,14.18.83,22.49-.41,27.32C957.78,793.35,928.36,718.09,911.3,712.48Z" transform="translate(-135.76 -355.05)" style="fill:#163560"/><path d="M929.1,828c.14.07-13.68,7.24-24.08,4.4-9.78-2.67-16.17-15.35-16-15.38,4.14-.82,5.34-6.51,5.25-31l1.87.36,31.49,6.24s-.72,9.91-.74,19.24C926.83,819.72,927.31,827.16,929.1,828Z" transform="translate(-135.76 -355.05)" style="fill:#ffb27d"/><path d="M878.59,729.54s12-19.28,34.18-7.75C912.77,721.79,901.26,722.11,878.59,729.54Z" transform="translate(-135.76 -355.05)" style="fill:#5fabb7"/><path d="M927.59,792.64s-.72,9.91-.74,19.24c-17.62-.49-26.93-16.57-30.75-25.48Z" transform="translate(-135.76 -355.05)" style="fill:#ef9e67"/><path d="M889.62,787.51S877.69,775,873.05,763.24c-3.31-8.42-5.39-41.68,28.08-43.57a45.16,45.16,0,0,1,19.72,3.23c8,3.35,20.28,11.59,14.58,42.13l-1,10.13Z" transform="translate(-135.76 -355.05)" style="fill:#163560"/><path d="M1069.81,1332.73s-8.37,1.44-15.24,2c-1.53.12-3,.19-4.24.19-3.31,0-9.27-1.25-13.28-2.18l-.3-.07-3.59-.88-.21-.06s-41.74-46.46-65.14-120.93c-.55-1.74-1.12-3.49-1.73-5.26-12.82-37.36-39.37-84.24-53.37-126.68-2.22-6.76-4.22-13.12-6-19.14-.57-1.93-1.13-3.82-1.66-5.69-10.32-35.84-13.3-59.36-16-84.5l84.14,21.4S1008.45,1144,1069.81,1332.73Z" transform="translate(-135.76 -355.05)" style="fill:#a53d38"/><path d="M933.1,797.62s-40.73,8.91-45.89-16.54-13.89-41.44,11.9-48.2,32.82,1.91,36.61,10S943.56,794.64,933.1,797.62Z" transform="translate(-135.76 -355.05)" style="fill:#ffb27d"/><path d="M917.6,728.5s-5.17,32.12-21.46,40-24.65,4.77-24.65,4.77a49.57,49.57,0,0,0,10.11-31.93S906.29,716,917.6,728.5Z" transform="translate(-135.76 -355.05)" style="fill:#163560"/><path d="M915.31,731.48s9.7,5,13.05,11.06,6.94,19.23,10.74,18c0,0,4.34-22-7.45-31.57C919.15,718.81,915.31,731.48,915.31,731.48Z" transform="translate(-135.76 -355.05)" style="fill:#163560"/><path d="M895.1,1356.76a46.1,46.1,0,0,1-2.17,19.66s-2.79,12.73,9.74,13,15.6-.94,14.18-8.74-4.11-21.3-4.11-21.3Z" transform="translate(-135.76 -355.05)" style="fill:#ffb27d"/><path d="M892.93,1376.42s-2.32,12-.9,18.4c0,0,3.78,2.84,12.88,2.84,8.63,0,13.13-2.84,13.13-2.84s.26-13.16-2-18.72C916,1376.1,907.12,1389.43,892.93,1376.42Z" transform="translate(-135.76 -355.05)" style="fill:#c45446"/><path d="M1103,1381.91s-23.1-25.64-30.2-38.69l-17.18,8.8,38.41,36.06,9-1.18Z" transform="translate(-135.76 -355.05)" style="fill:#ffb27d"/><path d="M1117.72,1396.94s-24.83,0-29.09-.47-7.68-6.62-12.29-15.84c-1.89-3.78-6.12-5.85-10.46-7V1395h-6.56l-6.21-22.7c-4.09-7.52-.32-14.33,2.55-20.27,3.35,0,12.36,2.28,29.43,21.51,5.61,6.32,11.8,8.57,18,8.38a1.3,1.3,0,0,0,.26.14C1117.48,1388.43,1117.72,1396.94,1117.72,1396.94Z" transform="translate(-135.76 -355.05)" style="fill:#c45446"/><path d="M1054.57,1334.69c-1.53.12-3,.19-4.24.19-3.31,0-9.27-1.25-13.28-2.18l-.3-.07-3.59-.88-.21-.06s-41.74-46.46-65.14-120.93c-.55-1.74-1.12-3.49-1.73-5.26-12.82-37.36-39.37-84.24-53.37-126.68-2.22-6.76-4.22-13.12-6-19.14-.57-1.93-1.13-3.82-1.66-5.69l14.88-11.3s44.68,72.35,58.51,140.44C989.88,1239.57,1039.25,1312.73,1054.57,1334.69Z" transform="translate(-135.76 -355.05)" style="fill:#912f2f"/><path d="M921.46,1189.48c.26,33.1-1.42,109.23-5.73,140.75,0,0-4.09,3.61-14.23,3.66-10.38,0-15-3.79-15-3.79C875.65,1275.3,868,1230,862.35,1190.89c-4.59-32.06-8.68-59.54-11.82-83.21-2.78-21-4.83-38.93-5.81-54.42q-.19-3.16-.34-6.17c-.12-2.66-.22-5.24-.26-7.74s-.06-5,0-7.35l.36,0,20.9-2,66-6.44C930.29,1081.51,921.32,1170.23,921.46,1189.48Z" transform="translate(-135.76 -355.05)" style="fill:#a53d38"/><path d="M901.5,1333.89a25.81,25.81,0,0,1-15-3.79C875.65,1275.3,868,1230,862.35,1190.89c-4.59-32.06-8.68-59.54-11.82-83.21-2.78-21-4.83-38.93-5.81-54.42-.11-7.64-.2-15-.28-21.29s-.2-11.87-.38-15.66l21.28,13.62,22.39,14.32s-31.76,28.9-24,83.51S890.64,1326.15,901.5,1333.89Z" transform="translate(-135.76 -355.05)" style="fill:#912f2f"/><path d="M918.81,816s33.94-5.39,45.33,5.94c14,13.89,40.18,93.53,39.14,102.62-.4,3.46-14.18,1.85-18.9-3.1C960.84,896.73,927.08,834.43,918.81,816Z" transform="translate(-135.76 -355.05)" style="fill:#bc3f3f"/><path d="M984.74,1038.32c-25.34,6.58-143.58,19.58-144.6-10-.25-7.23,0-15.95.57-25.4,1.77-29.25,6.57-65.4,8.87-85.29,1-9.12-2.45-50,.24-72.21a49.84,49.84,0,0,1,1.63-8.5c5.11-16.8,28-21.35,39.84-21.75l35.54-1.21s36.71,41,41.82,53.6,6.77,55.72,10.74,76.6S997.06,1035.12,984.74,1038.32Z" transform="translate(-135.76 -355.05)" style="fill:#bc3f3f"/><path d="M914.91,938.23s-19.76,60.69-74.2,64.66c1.77-29.25,6.57-65.4,8.87-85.29,1-9.12-2.45-50,.24-72.21.7.15,1.35.55,2.09.69C911.85,857.66,920.35,925.58,914.91,938.23Z" transform="translate(-135.76 -355.05)" style="fill:#a53d38"/><path d="M1001.56,926s-35.68,11.7-79.15-7.07c0,0-11.85-1.12-17.72.38,0,0,1.26-11.75,7-14.94s30.46,3.71,37.85,2.7C965.7,904.86,993.84,903.12,1001.56,926Z" transform="translate(-135.76 -355.05)" style="fill:#ef9e67"/><path d="M969.76,898.68s3.35-29-8-46.47c0,0,4-1.36,6.89,3.18S991.56,903,982,906.17,969.76,898.68,969.76,898.68Z" transform="translate(-135.76 -355.05)" style="fill:#a53d38"/><path d="M917.67,903.53c-.51,0-16.85,2.13-19.75,4.17s-.34,9.2,5.11,9.88S917.67,903.53,917.67,903.53Z" transform="translate(-135.76 -355.05)" style="fill:#ef9e67"/><path d="M873,914.51s46.54-1.7,88.76-9.87c0,0,7.72.07,6.81,6.81s-73.17,44.47-89.06,37.2Z" transform="translate(-135.76 -355.05)" style="fill:#ffb27d"/><path d="M961.76,904.64s4.94-6,8-6,11.07,3.92,12.26,7.49-9.47,1-13.45,5.28S961.76,904.64,961.76,904.64Z" transform="translate(-135.76 -355.05)" style="fill:#ffb27d"/><path d="M891.29,815.14s-39.11.09-44.83,14.14c-10.44,25.65,24,110.75,33,119.37,3.9,3.71,22-2.14,22-26.65C901.5,909.29,900.59,835,891.29,815.14Z" transform="translate(-135.76 -355.05)" style="fill:#bc3f3f"/><path d="M871.47,1030.24s25.17,8.69,21.63,37.69c0,0-2.32,11.76-9.57,6.54s-3.85-4.25-14.19-11.39-17.11-18.38-15.93-27.32Z" transform="translate(-135.76 -355.05)" style="fill:#ffb27d"/><path d="M872.62,1032.1l-14.9,18.09a3,3,0,0,1-2.87,1c-14-2.57-62.07-33.57-77.82-46.22a48,48,0,0,1-3.9-3.4c-5.87-6-26.13-35.52-40.51-61.82-8.27-15.14-14.6-29.22-15.1-37.1-1.79-28.16,13-67.53,13-67.53C774.34,850.4,779,885.38,779,885.38l24.29,90.38L872,1027.18A3.42,3.42,0,0,1,872.62,1032.1Z" transform="translate(-135.76 -355.05)" style="fill:#739af0"/><path d="M777,1005a48,48,0,0,1-3.9-3.4c-5.87-6-26.13-35.52-40.51-61.82-1.86-15.89-.58-30.8,6-41.22C738.59,898.56,775.83,964.09,777,1005Z" transform="translate(-135.76 -355.05)" style="fill:#4a82d3"/><path d="M751.79,1265.42l-7.45,31.06-4.61,19.22-15.34,64s-13.13,4-26.78,0a233,233,0,0,1-5.2-47.58c-.08-13.81,1.19-29.06,5.22-43.46a99.23,99.23,0,0,1,6.4-17C725.67,1227.43,751.79,1265.42,751.79,1265.42Z" transform="translate(-135.76 -355.05)" style="fill:#ffb27d"/><path d="M764.5,1398.38H692.4a61.24,61.24,0,0,1,2-21.35,35.12,35.12,0,0,1,1.71-4.58s16.1,3.65,30,0c0,0,13,11.11,20.94,14.52S763.67,1388.53,764.5,1398.38Z" transform="translate(-135.76 -355.05)" style="fill:#2b478b"/><path d="M744.34,1296.48l-4.61,19.22a111.08,111.08,0,0,1-47.32,16.4c-.08-13.81,1.19-29.06,5.22-43.46,6.63-3.36,13.38-5.12,19.13-4.12C731.07,1287,739.58,1292.25,744.34,1296.48Z" transform="translate(-135.76 -355.05)" style="fill:#e8945b"/><path d="M727.05,1398.38H692.4a61.24,61.24,0,0,1,2-21.35C703.14,1379.74,720.84,1386.53,727.05,1398.38Z" transform="translate(-135.76 -355.05)" style="fill:#1f396d"/><path d="M694.31,1265.42l-7.45,31.06-4.6,19.22-15.35,64s-13.13,4-26.78,0a233,233,0,0,1-5.2-47.58c-.08-13.81,1.19-29.06,5.22-43.46a100.07,100.07,0,0,1,6.4-17C668.2,1227.43,694.31,1265.42,694.31,1265.42Z" transform="translate(-135.76 -355.05)" style="fill:#ffb27d"/><path d="M638.67,1372.44s16.1,3.66,30,0c0,0,13.05,11.12,20.94,14.53s16.61,1.56,17.44,11.41H634.92S633.42,1384,638.67,1372.44Z" transform="translate(-135.76 -355.05)" style="fill:#2b478b"/><path d="M686.86,1296.48l-4.6,19.22a111.14,111.14,0,0,1-47.33,16.4c-.08-13.81,1.19-29.06,5.22-43.46,6.64-3.36,13.39-5.12,19.13-4.12C673.59,1287,682.1,1292.25,686.86,1296.48Z" transform="translate(-135.76 -355.05)" style="fill:#e8945b"/><path d="M766.83,1294.42a14.67,14.67,0,0,1-14.18,10.85H637a14.93,14.93,0,0,1-14.89-16.07c1.21-15.75,5.55-41.47,7.44-58.84.79-7.22,1.15-13,.69-16-11.67-77.22-21.46-168.17-20.27-185.56.16-2.45.28-3.71.28-3.71s8.42-.71,21.23-1.21c37.23-1.47,111.55-1.21,123.9,23.13,12.58,24.81,20.18,189.49,20.18,189.49C777.43,1251.89,770.93,1279.26,766.83,1294.42Z" transform="translate(-135.76 -355.05)" style="fill:#c65447"/><path d="M629.58,1230.36c.79-7.22,1.15-13,.69-16-11.67-77.22-21.46-168.17-20.27-185.56.16-2.45.28-3.71.28-3.71s8.42-.71,21.23-1.21c19.26,11.35,31.8,30.68,31.8,30.68S659.43,1199.06,629.58,1230.36Z" transform="translate(-135.76 -355.05)" style="fill:#b2443b"/><path d="M686.77,720.56c0-8.57,5.36-15.84,14.6-13.53,8.31,2.07,16.43,2,16.43,10.55s-6.95,18.5-15.51,18.5A15.52,15.52,0,0,1,686.77,720.56Z" transform="translate(-135.76 -355.05)" style="fill:#b2443b"/><path d="M696.6,795.88s-48.11-43.34-4.56-74c0,0,13-3.47,19.61-2.23,0,0,23.67-6.93,37.53,9.15s19.87,27.71,8,42.06S696.6,795.88,696.6,795.88Z" transform="translate(-135.76 -355.05)" style="fill:#c65447"/><path d="M641.39,1057.58s11.88,23.83-10.95,42c0,0-9.9,6.78-11.42-2s.24-5.74-2.15-18.08.67-25.1,7.76-30.65Z" transform="translate(-135.76 -355.05)" style="fill:#ffb27d"/><path d="M736,795.47s-.59,6.49-1.69,15.26c-.53,4.28-1.19,9.12-2,14-.55,3.51-1.16,7-1.82,10.42l-14.9,50.31-35-56.6s8.22-6.8,19.36-43.66c.11-.39.18-.6.18-.6Z" transform="translate(-135.76 -355.05)" style="fill:#ffb27d"/><path d="M756.4,1043.67c.45,5.65-1,6.68-1,6.68s-21.51,7.8-75.6,5.1q-8.77-.43-16.51-.89c-34.86-2.06-53.51-4.21-53.51-4.21s-28.55-65.9,25.09-147.1a261.5,261.5,0,0,1,21.51-28c8.69-9.91,10.61-23.16,13.89-35.76.94-3.61-1.78-4.41-.42-7.82,0,0,9.78-2.76,10.79-2.76,5.56,4.89,12.89,14.41,31.08,16.29,12.29,1.28,17.11-5.65,18.86-9.8,4.69,1.69,9.54,4.62,13.52,6.53,33,15.82,36,46.51,36,46.51s-30.29,99.6-32.17,112C747.1,1006,754.05,1014.55,756.4,1043.67Z" transform="translate(-135.76 -355.05)" style="fill:#739af0"/><path d="M734.32,810.73c-.53,4.28-2.35,16-3.12,20.89C694.16,817.18,699,789,700,785.2c.11-.39.18-.6.18-.6S719.8,798.51,734.32,810.73Z" transform="translate(-135.76 -355.05)" style="fill:#e8945b"/><path d="M742.26,815.71s-42.78,1.37-43.22-25.28-6.27-44.43,21-46.43,32.77,8.07,35.08,16.93S753.38,814.66,742.26,815.71Z" transform="translate(-135.76 -355.05)" style="fill:#ffb27d"/><path d="M746,740s-2.69,44.5-54.84,39.73C691.16,779.73,692.27,718.1,746,740Z" transform="translate(-135.76 -355.05)" style="fill:#c65447"/><path d="M736,744.43s14.62,18.08,21.25,23.85C757.26,768.28,773.51,745,736,744.43Z" transform="translate(-135.76 -355.05)" style="fill:#c65447"/><path d="M736,744.43s13.13,22.17,19.76,27.94c0,0,17.74-27.41-19.76-27.94Z" transform="translate(-135.76 -355.05)" style="fill:#c65447"/><path d="M663.31,1054.56c-34.86-2.06-53.51-4.21-53.51-4.21s-28.55-65.9,25.09-147.1C645.75,928.57,671.36,996.22,663.31,1054.56Z" transform="translate(-135.76 -355.05)" style="fill:#4a82d3"/><path d="M680.66,828.86s-41.38,8.49-59.82,29.84c-14.13,16.36-29.58,96.35-29.58,109.56,0,12.63,14.51,79.78,23.58,92.65a3,3,0,0,0,2.76,1.28l23.31-2.48a3.41,3.41,0,0,0,3-3.92L630.84,970.9l46-81.52S703.91,857.25,680.66,828.86Z" transform="translate(-135.76 -355.05)" style="fill:#739af0"/><path d="M858.21,1375.4a17.84,17.84,0,0,0,11.27,8.53,19.42,19.42,0,0,1,11.69,7.19,4.56,4.56,0,0,1-3.66,7.26H838.08a5.67,5.67,0,0,1-5.64-6.24c.29-2.92.6-6.32.73-8.93.29-5.7,6-10.28,6-10.28Z" transform="translate(-135.76 -355.05)" style="fill:#2c3a64"/><path d="M867.14,1276c1.64,30-2.45,98.13-2.45,98.13s-2.74,7.6-20.1,9.41a52.16,52.16,0,0,1-17.68-1.44q-5.25-24.19-9.72-46.19c-21.43-105.14-29.79-170.09-29.79-170.09l84.6-19.67s-3.71,59.36-4.8,99.84C866.86,1258.59,866.78,1269.39,867.14,1276Z" transform="translate(-135.76 -355.05)" style="fill:#35488b"/><path d="M872,1146.11s-3.71,59.36-4.8,99.84l-50,89.92c-21.43-105.14-29.79-170.09-29.79-170.09Z" transform="translate(-135.76 -355.05)" style="fill:#2c3a64"/><path d="M786.94,1010.16s-32.73-14.9-57.5-1.87-9.63,120.63,25.79,131.06h0S821.58,1160.57,786.94,1010.16Z" transform="translate(-135.76 -355.05)" style="fill:#35488b"/><path d="M881.64,1171.2h0a3.32,3.32,0,0,0-.32-.42c-1.36-2.06-4.3-9.45-4.3-9.45l-5.31,7c-.14.15-2.24-1.49-2.35-1.31l.52,18,5.28-1.25a3.68,3.68,0,0,0,.66-.23h0a3.77,3.77,0,0,0,1.61-1.41l4.26-6.76A3.79,3.79,0,0,0,881.64,1171.2Z" transform="translate(-135.76 -355.05)" style="fill:#e8945b"/><path d="M857.24,993.44s10.42,0,16.65,14.68c12.9,30.38,7.3,95.94,6.52,105.33,0,0,4.43,18.64-2.16,50.88l-8.58,5.09s-13.22-127.39-11.6-140S857.24,993.44,857.24,993.44Z" transform="translate(-135.76 -355.05)" style="fill:#e8945b"/><path d="M789.57,1375.4a17.84,17.84,0,0,0,11.27,8.53,19.42,19.42,0,0,1,11.69,7.19,4.56,4.56,0,0,1-3.66,7.26H769.44a5.67,5.67,0,0,1-5.64-6.24c.29-2.92.6-6.32.73-8.93.29-5.7,6-10.28,6-10.28Z" transform="translate(-135.76 -355.05)" style="fill:#2c3a64"/><path d="M817,873.27c-8.43,0-19,3.63-24.71,9.15-6,5.87-12.32,6.17-16.79,13.1-4.67,7.22-7.55,14.72-5.21,24.88,2.56,11.09,2,21.83,9,30,3.45,4,9.07,4.49,13,8.19,7.19,6.8,15.37,9,24.71,9,17.59,0,28.54-10.43,37.54-23.41,7.22-10.41,5.79-17.42,7.48-26.32C867.35,889.79,844,873.27,817,873.27Z" transform="translate(-135.76 -355.05)" style="fill:#35488b"/><path d="M841.77,986.19l-33.63,17.19-6.74-23.33s4.28-8.08,6.22-21.3a89.33,89.33,0,0,0,.7-19.21l27.39,14a52.91,52.91,0,0,0-1.09,6.28,45.75,45.75,0,0,0,.48,14.66C836.09,979,838.08,983.19,841.77,986.19Z" transform="translate(-135.76 -355.05)" style="fill:#ffb27d"/><path d="M763.86,1155.24s-6.4,84.75-5,219.8a52,52,0,0,0,17,5c17.37,1.72,21.6-5.16,21.6-5.16s17.76-65.92,22.21-95.62c4.09-27.38,31-126.19,31-126.19Z" transform="translate(-135.76 -355.05)" style="fill:#35488b"/><path d="M864,988.54c-3-1.4-12.37-5.16-26.49-7.48.15,4.84-1.14,9.35-9.62,10.46-11.29,1.47-21.38-6.23-26.49-11.47h0s-8,.85-17.24,2.88a108.09,108.09,0,0,0-14.09,4c-5.42,2-10.1,4.48-12.6,7.55h0c-8.68,10.66-23,42.76-23,42.76s23.79,8.82,29.79,14l.13,1.15,3.73,30.91-11.09,61.57a9.84,9.84,0,0,0-.15,1.61,9.09,9.09,0,0,0,7,8.81s1,.16,2.71.4c11.76,1.65,59.47,7.34,96.87-2.81a18.18,18.18,0,0,0,13.26-19l-6.1-76.52c3.26-.56,7-1.15,10.07-1.49a18.89,18.89,0,0,1,5.42-.12S881.86,995.92,864,988.54Z" transform="translate(-135.76 -355.05)" style="fill:#f99746"/><path d="M793.41,1102.11c-.48,21.49-14.56,46.73-26.85,53.53-1.75-.24-2.71-.4-2.71-.4a9.09,9.09,0,0,1-7-8.81,9.84,9.84,0,0,1,.15-1.61l11.09-61.57-3.73-30.91.28-.83S794.24,1064.16,793.41,1102.11Z" transform="translate(-135.76 -355.05)" style="fill:#ed7d2b"/><path d="M880.66,1055.8c-3.13.34-10.09,1.49-10.09,1.49l-3.52-32.06S878.82,1047.83,880.66,1055.8Z" transform="translate(-135.76 -355.05)" style="fill:#ed7d2b"/><path d="M759,1133.82l2.88-16c48.76-70.55,52.45-83.21,30.53-114.88-6.28-9.07-17.71-14.74-22.37-16a108.09,108.09,0,0,1,14.09-4c4.63,2.18,8.89,4.31,12.19,7.17C863.27,1048,759,1133.82,759,1133.82Z" transform="translate(-135.76 -355.05)" style="fill:#35488b"/><path d="M787.77,1066.89c1.21-.09,6.47-2.73,6.47-2.73s2.64-19.56,21.74-20.88c0,0,7.95,0,6.32,5.48s-1.81,3.07-3.93,10.78-7.68,13.58-13.58,13.93l-6,1.64S784.59,1067.12,787.77,1066.89Z" transform="translate(-135.76 -355.05)" style="fill:#ffb27d"/><path d="M794.24,1064.16s-32,2.91-36.78,5c0,0,2.61-7,7.23-17.66-4.18-4.11-17.91-10.22-27-13-6.94,17.68-9.6,35.2-5.71,52.08a4.09,4.09,0,0,0,3.81,3.14c10.25.48,44.27.31,69-20.46Z" transform="translate(-135.76 -355.05)" style="fill:#ffb27d"/><path d="M835.1,974.51c-15.58-.42-27.48-15.76-27.48-15.76l27,1.1A45.75,45.75,0,0,0,835.1,974.51Z" transform="translate(-135.76 -355.05)" style="fill:#e8945b"/><path d="M836.58,965.1s-34.42,4.19-35.16-20.06,13.62-40,23.19-39.78c19.1.35,22.25,8.07,24.47,16.11S852.43,963.39,836.58,965.1Z" transform="translate(-135.76 -355.05)" style="fill:#ffb27d"/><path d="M827.38,951.12s.74,3,8.28,2.46c0,0,6.33-.46,6.1-3.79C841.76,949.79,835.59,947.49,827.38,951.12Z" transform="translate(-135.76 -355.05)" style="fill:#fff"/><path d="M833.13,905.48s-29.41,0-22.65,20.18c4.26,12.73-9.91,14.71-9.91,14.71L793.75,920l4.27-15.9Z" transform="translate(-135.76 -355.05)" style="fill:#35488b"/><path d="M1849.21,978.28c-32.4-8.24-68-58.5-68-58.5l9.12-7.92c9.45,11.14,48.72,30.32,48.72,30.32-.21-10.19.06-19.49.7-27.95,4.36-57.49,26-76.65,32-80.85a14.68,14.68,0,0,1,1.5-1s0,.42.06,1.21c.08,1.71.24,5.15.4,9.87C1874.84,878.68,1876.28,985.18,1849.21,978.28Z" transform="translate(-135.76 -355.05)" style="fill:#d9935c"/><path d="M1790.31,911.86c-.13-1.36-1-21.11-5-24.87s-11.67-8.88-13.9-8.47-9.79,13-6.22,21.66,16,19.6,16,19.6Z" transform="translate(-135.76 -355.05)" style="fill:#d9935c"/><path d="M1798.37,914.16l-21.34.89a1.29,1.29,0,0,1-1.34-1.23l-1.7-40.68a1.29,1.29,0,0,1,1.23-1.34l21.34-.89a1.28,1.28,0,0,1,1.33,1.23l1.7,40.68A1.28,1.28,0,0,1,1798.37,914.16Z" transform="translate(-135.76 -355.05)" style="fill:#f1a34f"/><path d="M1792.82,914.39l-19.35.81a2.27,2.27,0,0,1-2.37-2.18l-1.62-38.7a2.27,2.27,0,0,1,2.18-2.37l19.35-.81a2.27,2.27,0,0,1,2.37,2.18L1795,912A2.27,2.27,0,0,1,1792.82,914.39Z" transform="translate(-135.76 -355.05)" style="fill:#d86713"/><path d="M1769.82,880s5.82-6.49,11.64-1.53-.39,15.56-5.43,18.46a41,41,0,0,0-6.67,4.41Z" transform="translate(-135.76 -355.05)" style="fill:#d9935c"/><path d="M1919.75,1312.56c-2,7.85-4.14,15.32-6.35,22.27-.48,1.5-1,3-1.42,4.39-.24.72-.48,1.42-.7,2.12-.47,1.37-.93,2.73-1.39,4.05-.6,1.72-1.2,3.4-1.79,5q-.64,1.8-1.29,3.54c-6.57,17.62-12.07,28.78-12.07,28.78l-13.1-.9s4.92-23.38,5.9-56.87c0-1.19.07-2.4.09-3.62q.07-3.88.08-7.94c0-1.11,0-2.23,0-3.36-.26-28.85-3.83-62.93-15.23-95.48a623.63,623.63,0,0,1-20.84-73.59c-15.68-72.22-12-119.66-12-119.66l73.64,8.61,3.43.41c.32,33.82,1.18,79.74,2,115.65.13,6.23.25,12.16.37,17.68.51,23,.89,38.81.89,38.81C1934.09,1233,1928.94,1276,1919.75,1312.56Z" transform="translate(-135.76 -355.05)" style="fill:#cb7d45"/><path d="M1898.67,768.45s17.42,14.83,1.45,31.91c0,0,13.31,1.3,17.81-2.38a12.05,12.05,0,0,1-1.7,2.6s14.88.54,21-4.1,2.2-80.79-39.11-72.28c0,0-35-2.64-31.75,37.87s-10,40.51-10,40.51,3.67,1.82,5.45,1.82c0,0,2.59-1,3.11-2.43a9.42,9.42,0,0,1-1.18,3s14.27,1.35,21.39-4S1900.7,776.81,1898.67,768.45Z" transform="translate(-135.76 -355.05)" style="fill:#233862"/><path d="M1954.89,1013c-13.92-31.21-20.57-40-20.81-49.86-.18-7.76,3.65-16.14,11.09-36.69a76.29,76.29,0,0,0,3.7-14.85c5.89-39.62-17-82.44-31.26-85.35-4-1-10.67-15.36-10.59-38.41l-1.78.35-30,5.94s.68,9.43.7,18.32c0,7.41-.38,14.94-2.06,15.82-2.15.2-4.12.59-4.12.59s-25.37,17.82-27,42c-2.18,32.28,20.57,70.54.39,135.06C1822.55,1071.84,1962.58,1030.29,1954.89,1013Z" transform="translate(-135.76 -355.05)" style="fill:#d9935c"/><path d="M1875.26,794.17s.68,9.43.7,18.32c16.78-.47,25.64-15.78,29.28-24.26Z" transform="translate(-135.76 -355.05)" style="fill:#cb7d45"/><path d="M1908.33,785s8.79-13.89,10.9-25.77c1.51-8.48-2.81-39.91-34.4-35.39a43,43,0,0,0-17.79,6.73c-6.86,4.63-16.76,14.63-5.69,42.06l2.87,9.27Z" transform="translate(-135.76 -355.05)" style="fill:#233862"/><path d="M1869.66,802.58s39.69.66,39.71-24.07,5.17-41.29-20.17-42.75-30.27,8-32.29,16.22S1859.33,801.77,1869.66,802.58Z" transform="translate(-135.76 -355.05)" style="fill:#d9935c"/><path d="M1871.12,735.16s10.87,29,27.55,33.29,23.91-.18,23.91-.18a47.24,47.24,0,0,1-15.45-27.9S1879.32,721.35,1871.12,735.16Z" transform="translate(-135.76 -355.05)" style="fill:#233862"/><path d="M1873.82,737.51s-8.12,6.48-10.1,12.77-2.86,19.26-6.64,18.82c0,0-8.19-19.72,1-30.87C1867.85,726.4,1873.82,737.51,1873.82,737.51Z" transform="translate(-135.76 -355.05)" style="fill:#233862"/><path d="M2006.51,1046.2l-11.91,3.57s-39.31-65.22-42.88-82.18c-1.17-5.53-4-16.59-7.36-29-6.9-25.65-15.81-57-15.81-57l-2.93-12.71-10-43.33s19.16,2,30.36,6.65c3.72,1.55,6.55,3.39,7.53,5.56,8.24,18.1,16.46,63.79,22.23,96.37,3.22,18.17,5.68,32.26,7,35.25C1986.26,977.71,1997.18,1023.57,2006.51,1046.2Z" transform="translate(-135.76 -355.05)" style="fill:#d9935c"/><path d="M1872.31,738.49s7.74,30.37,28.79,40.1c0,0-21-18.66-22.83-38.71S1872.31,738.49,1872.31,738.49Z" transform="translate(-135.76 -355.05)" style="fill:#233862"/><path d="M2005.67,1044.21s3.62,8.54,7.39,10.92,7.36,8.1,8.14,12.71c1.44,8.45-5,13.69-9.81,13.69s-9.31-6.49-12.11-22c-.16-.85-4.68-9.75-4.68-9.75Z" transform="translate(-135.76 -355.05)" style="fill:#d9935c"/><path d="M1962,1306.22c-4.24,45.19-22.88,74.41-22.88,74.41l-6.37,5.8s-5.8-33.09-10-71c-4-36-9.46-74.1-15.65-85.74-9.25-17.37-16.06-52.91-21-90.45-8.11-62.13-11-129.77-11-129.77l74.66-3.7c7.52,12.62,10.78,33.33,11.56,56.88.82,24.75-1.13,52.64-3.83,77.57-3.78,34.9-9,64-10.26,70.53v0a3.88,3.88,0,0,0,.5,2.5C1962.65,1242.72,1964.79,1276.36,1962,1306.22Z" transform="translate(-135.76 -355.05)" style="fill:#d9935c"/><path d="M1874.86,909.28c-1.68,41-7.81,81.63-25.67,79-21.89-3.19-27.59-23.62-28.75-38.81a86.88,86.88,0,0,1,.31-16.88s10.78-.05,12.52-1.65c8.28-7.65,5.82-82.6,9.91-90.38s30.67-12.78,30.67-12.78S1876.53,868.74,1874.86,909.28Z" transform="translate(-135.76 -355.05)" style="fill:#ee9849"/><path d="M1874.86,909.28c-1.68,41-7.81,81.63-25.67,79-21.89-3.19-27.59-23.62-28.75-38.81,5.37-.27,14.83-1.58,18.59-7.32,5.38-8.21,22.18-61,22.18-61S1867.81,893,1874.86,909.28Z" transform="translate(-135.76 -355.05)" style="fill:#e58638"/><path d="M1919.75,1312.56c-2,7.85-4.14,15.32-6.35,22.27-.48,1.5-1,3-1.42,4.39-.24.72-.48,1.42-.7,2.12-.47,1.37-.93,2.73-1.39,4.05-.6,1.72-1.2,3.4-1.79,5q-.64,1.8-1.29,3.54c-6.57,17.62-12.07,28.78-12.07,28.78l-13.1-.9s4.92-23.38,5.9-56.87c0-1.19.07-2.4.09-3.62q.07-3.88.08-7.94c0-1.11,0-2.23,0-3.36-.26-28.85-3.83-62.93-15.23-95.48a623.63,623.63,0,0,1-20.84-73.59c7.78,1.61,14.63,0,34.52-1.7,2.09-.18,12.08,12.2,21.95,28.57.51,23.05,11.82,34.63,11.82,34.63C1934.09,1233,1928.94,1276,1919.75,1312.56Z" transform="translate(-135.76 -355.05)" style="fill:#233862"/><path d="M1962,1306.22c-4.24,45.19-22.88,74.41-22.88,74.41l-6.37,5.8s-5.8-33.09-10-71c-4-36-9.46-74.1-15.65-85.74-9.25-17.37-16.06-52.91-21-90.45,6.87,2.86,30.26,10.29,71.41,1-3.78,34.9-9,64-10.26,70.53v0a3.88,3.88,0,0,0,.5,2.5C1962.65,1242.72,1964.79,1276.36,1962,1306.22Z" transform="translate(-135.76 -355.05)" style="fill:#2b478b"/><path d="M1851.63,965s43.92,11,82.45-1.81c0,0,21.16,44.92,27,64.17s15.24,59,15.24,59-78.23,24.17-142.54,0c0,0-2.93-52.93,5.5-80.53S1851.63,965,1851.63,965Z" transform="translate(-135.76 -355.05)" style="fill:#233862"/><path d="M2010.85,985.57c0,10.31-10.51,16.64-21.79,19.72-10.85,3-22.4,2.92-26,.51-6.24-4.18-16.39-50.63-19.36-64.77l-.84-4.06s-8.1,19.33-8.35,21.14c-.12.81-.21,1.92-.29,2.9-.08,1.19-.13,2.17-.13,2.17s-44,22.2-82.45,1.81c0,0-15.65-90.42-8.86-106,3.38-7.74,21-23.69,28-30.57,1.58-1.55,1.42-4.62.81-7.42a3.24,3.24,0,0,1,4-3.84c4.54,1.18,12.69,1,21.42-1.89a51.74,51.74,0,0,0,13.09-6.4,2,2,0,0,1,3.1,1.42c.67,5.39,2.3,15.23,5.27,15.23,4.1,0,32,3.41,34.09,6.87.72,1.2,8,17.64,17.16,39.43a.12.12,0,0,1,0,0C1986.94,912.75,2010.85,972.39,2010.85,985.57Z" transform="translate(-135.76 -355.05)" style="fill:#ee9849"/><path d="M1942.85,937s-8.1,19.33-8.35,21.14c-.12.81-.21,1.92-.29,2.9a39.88,39.88,0,0,1-13.47,7.09c-13.71,4.15-19.66-22.12-18.84-35.22s20.2-50.52,26.65-51.3S1942.85,937,1942.85,937Z" transform="translate(-135.76 -355.05)" style="fill:#e58638"/><path d="M1943.69,941l-.84-4.06A20.39,20.39,0,0,1,1943.69,941Z" transform="translate(-135.76 -355.05)" style="fill:#e58638"/><path d="M1887.11,973.37c-25,0-34.95-7-35.71-7.6L1849.78,954c.24.18,33.81,20.34,85.76,1l-1.1,8.93C1914.46,971.36,1900.1,973.37,1887.11,973.37Z" transform="translate(-135.76 -355.05)" style="fill:#b64c41"/><path d="M2010.85,985.57c0,10.31-10.51,16.64-21.79,19.72,15.55-18.51-18.48-130.54-19.34-133.4C1986.94,912.75,2010.85,972.39,2010.85,985.57Z" transform="translate(-135.76 -355.05)" style="fill:#e58638"/><path d="M1918.45,825.54s-20.93,13.26-36.76,10.12c0,0-3.81-2.4,1.44-4.82,4.92-2.26,16.37-9,13.86-15.55a51.74,51.74,0,0,0,13.09-6.4,2,2,0,0,1,3.1,1.42C1913.85,815.7,1915.48,825.54,1918.45,825.54Z" transform="translate(-135.76 -355.05)" style="fill:#e58638"/><path d="M1902.27,1393.71h-8.35c-2.8-.44-4.87-1.25-7.74-1.63-4.36-.57-6.37,1.22-6.77,1.63l-.08.08h-35.49c-.89-1.27,0-4.22.8-6.4a5.05,5.05,0,0,1,3.33-3c3.76-1.09,11.18-2.06,18-8.21,3.82-3.45,18.46-12.7,18.46-12.7l.08,0c.32,0,1.85.48,8.51,6.1,3.44,2.9,9.31-4.1,9.31-4.1a8.32,8.32,0,0,1,1.92,2.61,8.84,8.84,0,0,1,.76,5.45c-.53,3.2,1.18,9.14,2.55,13.16.82,2.44,1.52,4.16,1.52,4.16S1909.46,1392.81,1902.27,1393.71Z" transform="translate(-135.76 -355.05)" style="fill:#233862"/><path d="M1904.23,1368c-2,1.41-6.21,4.17-9,4.54-3.77.49-10.82-9.13-10.82-9.13l.08,0c.32,0,1.85.48,8.51,6.1,3.44,2.9,9.31-4.1,9.31-4.1A8.32,8.32,0,0,1,1904.23,1368Z" transform="translate(-135.76 -355.05)" style="fill:#466aa5"/><path d="M1902.27,1393.71h-8.35c-2.8-.44-4.87-1.25-7.74-1.63-4.36-.57-6.37,1.22-6.77,1.63l-.08.08h-35.49c-.89-1.27,0-4.22.8-6.4,1.08-1,1.39,4.16,2,5s29,.3,30.59-.89,6.56-3.28,13.41-1.64c6,1.42,14.74-2.23,16.92-3.2.82,2.44,1.52,4.16,1.52,4.16S1909.46,1392.81,1902.27,1393.71Z" transform="translate(-135.76 -355.05)" style="fill:#466aa5"/><path d="M1946.86,1393.71h-8.36c-2.79-.44-4.86-1.25-7.73-1.63-4.36-.57-6.37,1.22-6.77,1.63l-.07.08h-35.5c-.89-1.27,0-4.22.8-6.4a5.05,5.05,0,0,1,3.33-3c3.76-1.09,11.18-2.06,18-8.21,3.82-3.45,18.46-12.7,18.46-12.7l.08,0c.32,0,1.85.48,8.51,6.1,3.44,2.9,9.31-4.1,9.31-4.1a8.32,8.32,0,0,1,1.92,2.61,8.84,8.84,0,0,1,.76,5.45c-.53,3.2,1.18,9.14,2.54,13.16.83,2.44,1.53,4.16,1.53,4.16S1954.05,1392.81,1946.86,1393.71Z" transform="translate(-135.76 -355.05)" style="fill:#233862"/><path d="M1948.82,1368c-2,1.41-6.21,4.17-9,4.54-3.77.49-10.82-9.13-10.82-9.13l.08,0c.32,0,1.85.48,8.51,6.1,3.44,2.9,9.31-4.1,9.31-4.1A8.32,8.32,0,0,1,1948.82,1368Z" transform="translate(-135.76 -355.05)" style="fill:#466aa5"/><path d="M1946.86,1393.71h-8.36c-2.79-.44-4.86-1.25-7.73-1.63-4.36-.57-6.37,1.22-6.77,1.63l-.07.08h-35.5c-.89-1.27,0-4.22.8-6.4,1.08-1,1.39,4.16,2,5s29,.3,30.6-.89,6.55-3.28,13.4-1.64c6,1.42,14.74-2.23,16.91-3.2.83,2.44,1.53,4.16,1.53,4.16S1954.05,1392.81,1946.86,1393.71Z" transform="translate(-135.76 -355.05)" style="fill:#466aa5"/><path d="M2288.43,1221.53c-5,12.88-30.83,39.4-57.42,64.44-31.76,29.92-64.64,57.73-64.64,57.73s-15,4.59-8.48-17.53c0,0,36.25-66.6,51.82-86.26,4.44-5.61,9-10.74,13.35-15.21a213.68,213.68,0,0,1,19.68-18.15s-2-3.28-5.35-9c-16.18-27.7-62.62-112.54-48.28-150.2,17.27-45.38,60.19-65.82,60.19-65.82s13.61,57.42,25.1,116.44C2285,1152.33,2293.73,1208,2288.43,1221.53Z" transform="translate(-135.76 -355.05)" style="fill:#f99746"/><path d="M2274.4,1098c-7.91,36.35-21.6,87.77-37,99.58-16.18-27.7-62.62-112.54-48.28-150.2,17.27-45.38,60.19-65.82,60.19-65.82S2262.91,1039,2274.4,1098Z" transform="translate(-135.76 -355.05)" style="fill:#ed7d2b"/><path d="M2231,1286c-31.76,29.92-64.64,57.73-64.64,57.73s-15,4.59-8.48-17.53c0,0,36.25-66.6,51.82-86.26,4.44-5.61,9-10.74,13.35-15.21C2222.55,1241.7,2223,1270.54,2231,1286Z" transform="translate(-135.76 -355.05)" style="fill:#ed7d2b"/><path d="M2268.21,1067.26s-37.61-94.41-35.63-97.14c1.23-1.7,3.62-53.21,5.25-91.92,1-23.54,1.7-42.36,1.7-42.36s16.67,5.94,20.66,46.49c.77,7.82,1.22,15.19,1.49,22.06,1.13,28.78-1,49,3.32,58.63,5.33,11.88,3.42,66.08,5.06,71.54S2280.17,1053.67,2268.21,1067.26Z" transform="translate(-135.76 -355.05)" style="fill:#ffb27d"/><path d="M2238.47,1004.35l-3-11.07c-21.12,9.14-83.21-4.22-83.21-4.22s-18.5,21.92-9,66.4c4.65,21.71,21.09,114.46,27.83,141.63,2.43,9.84,4.32,16.83,5.09,19.61,0,0,0,0,0,0a4,4,0,0,1-.28,2.54,130,130,0,0,0-6.58,21.66c-15.36,72,26.72,151.46,26.72,151.46l7.19-4.23s2.8-95.91,10.26-139.2c1.27-7.35,2.67-13.18,4.21-16.77,4.5-10.46,7.66-26.93,9.87-46.29,4.17-36.59,4.92-83.49,4.68-119.58C2233,1066.25,2238.47,1004.35,2238.47,1004.35Z" transform="translate(-135.76 -355.05)" style="fill:#f99746"/><path d="M2143.19,1016.08c-8.59-13,20.87-66.08,19.82-71.08-2.06-9.87-6.91-20.79-11.66-30.62s-9.42-18.54-11.08-24c1.53-2.13,3-4.13,4.42-6a53.73,53.73,0,0,0,5.13-8.05c1.31-2.71,1.86-5.25,1.23-7.69a37.68,37.68,0,0,0-1.92-5.49c-.37-.86-.76-1.7-1.18-2.53A79,79,0,0,0,2137,844.67c10.37-6.65,26.72-10,26.86-9.54,1.21-.4,2.29-.69,3.16-.91.59-.16,1.21-.31,1.81-.44,2.06-.5,4.13-.92,5.92-1.25,3.73-3.74,8.18-17.58,6.84-38l1.8.24,30.21,4.08s-.09,9.44.42,18.29c.41,6.92,1.21,13.48,2.72,14.91,2.34.19,3.75.33,3.75.33l0,0a.23.23,0,0,0,.05.07c1.7.14,3.27.29,4.7.45l.35,0c2.65.3,4.84.63,6.64.95a2.74,2.74,0,0,0,.37.08c5.16,1,6.9,1.84,6.9,1.84v.09c-.25,9.52,15.12,26.16,14,47.7,0,.81-7.85,57.25-7.82,58.09.63,16.07,8.5,61.33,8.5,61.33C2261.44,1017.06,2147.81,1029.45,2143.19,1016.08Z" transform="translate(-135.76 -355.05)" style="fill:#ffb27d"/><path d="M2171.14,722c-.56-1.57-7.14-18.22-33.38-10.94,0,0,13.24-2.49,17.22,2.42,0,0-10.88-4.19-17.25.27s-6.63,18.16-5.38,22.25,9.31,16,14.15,15.7A14.42,14.42,0,0,0,2152,750a64.37,64.37,0,0,0-1.53,7.32c-3.66,24.52,13.56,41.93,21.61,36.87,5.16-3.24,9.77,5.85,9.77,5.85l40.7-61.43S2189.35,703.42,2171.14,722Z" transform="translate(-135.76 -355.05)" style="fill:#2c3a64"/><path d="M2213.62,798.88s-.11,9.43.42,18.29c-16.74.55-26.5-14.15-30.64-22.37Z" transform="translate(-135.76 -355.05)" style="fill:#ed985f"/><path d="M2219.71,806.92s-39.48,3.07-41-21.55-7.67-40.8,17.48-43.8,30.63,6.08,33.14,14.17S2229.94,805.48,2219.71,806.92Z" transform="translate(-135.76 -355.05)" style="fill:#ffb27d"/><path d="M2227.3,742.13c-6.56-7-11.08-5.13-13.53-2.74-22.33-10.55-35.18,7.86-35.18,7.86A47.11,47.11,0,0,1,2164.91,776s7.48,4,23.83-1.28c5-1.62,9.3-5.5,12.88-10.11A92.42,92.42,0,0,1,2186.94,785c19.27-10.39,25.55-38.47,26.16-41.44,2.55,2,7.59,6.44,9.33,11,2.35,6.15,4,19,7.76,18.33C2230.19,772.8,2237.14,752.67,2227.3,742.13Z" transform="translate(-135.76 -355.05)" style="fill:#2c3a64"/><path d="M2243.25,1394.66H2182s-2.29-9.77,1.73-16.42c3.56-5.88,1.37-9.88-.17-14.88,2.78,1.14,6.1,3,10.05,2.72,3-.18,7.84-2.42,10.67-4.06,2.64,3,12.37,16.66,15.9,19.19C2224.16,1384.09,2242,1383.07,2243.25,1394.66Z" transform="translate(-135.76 -355.05)" style="fill:#233862"/><path d="M2152.18,1393.23l-23.06-56.77s8.19-5.8,15.87-4.58c6.79,1.09,9.38-1.44,12.9-5.71a23.87,23.87,0,0,0,2.08,10.29,21.75,21.75,0,0,0,6.4,7.24c-1.79,3.57-9.4,18.85-10.42,23.07C2154.79,1371.56,2162.46,1387.72,2152.18,1393.23Z" transform="translate(-135.76 -355.05)" style="fill:#233862"/><path d="M2245.75,941.72c0-.46,2.4-18.2,4.56-34a50.26,50.26,0,0,0,15.45-4c-.27-6.87-4.85-65.67-29.57-69-1.18-.32-2.39-.59-3.56-.82l-.37-.07c-3-.57-5.72-.86-6.64-.95l-.35,0s7.37,20.92,7.23,23.38-23.82,3.28-39.38,3.48-24.13-25.62-24.27-26c-.61.14-1.23.28-1.82.44-.87.22-21.51,3.37-30,10.45A78.86,78.86,0,0,1,2148,860.6c.42.83.81,1.68,1.18,2.53a37.39,37.39,0,0,1,1.92,5.5c.63,2.44.08,5-1.23,7.68a53.73,53.73,0,0,1-5.13,8.05c-1.39,1.89-2.89,3.89-4.42,6a56.76,56.76,0,0,0,2.66,6.7h0c2.22,4.9,5.3,10.87,8.42,17.31,4.75,9.82,9.6,20.75,11.66,30.61,1,5-28.41,58.09-19.82,71.08,1.37,3.95,12.25,5.65,26.73,5.73,34.5.18,89.4-8.88,84.33-18.76C2254.25,1003.05,2246.38,957.8,2245.75,941.72Z" transform="translate(-135.76 -355.05)" style="fill:#2b478b"/><path d="M2169.92,1021.81c-14.48-.08-25.36-1.78-26.73-5.73-8.59-13,20.87-66.08,19.82-71.08-2.06-9.86-6.91-20.79-11.66-30.61-3.12-6.44-6.2-12.41-8.42-17.31h0l1.93-7.61s31.35,36.45,38.54,53.65C2189,956.62,2175.87,1002.58,2169.92,1021.81Z" transform="translate(-135.76 -355.05)" style="fill:#233862"/><path d="M2155,997.09l-6.2,10.75c-39.87-15.79-65.27-51.37-65.27-51.37-1.39-20.2,8.06-43.43,19.38-63.46,1.88-3.32,3.8-6.55,5.75-9.66,8,6.84,19.19,15.79,29.84,22.3-1.65,2.75-3.64,6-5.78,9.55-8.83,14.57-20.26,33.23-21.74,34.72C2108.54,952.37,2155,997.09,2155,997.09Z" transform="translate(-135.76 -355.05)" style="fill:#ffb27d"/><path d="M2134.38,919.57c-19.63-1.29-34.1-26.83-34.1-26.83,15.33-27.09,36.73-48.07,36.73-48.07C2191.41,865.44,2143.25,913.71,2134.38,919.57Z" transform="translate(-135.76 -355.05)" style="fill:#2b478b"/><path d="M2155,997.08a12.11,12.11,0,0,0,5.54-2.39c2.19-1.91,9.15-7.3,9.56-5.63s-5.05,4.27-2.18,4.68,7.37-1.52,11.88-.83,11.43,11.07,9.3,12.3-9.92-2.87-12-1.44-16.66,9.43-28.33,4.07S2155,997.08,2155,997.08Z" transform="translate(-135.76 -355.05)" style="fill:#ffb27d"/><path d="M1553.47,763.91s-28.39-1.42-29.19-17.8-24.24-28.33-17.45-41.49c8.33-16.13.73-31.63,11.25-42.48,11.58-11.95,26.22-5.46,33.94-12.42s21.85-13.38,35.77-4.78,24.56,4,33.71,12.25c10.12,9.16,6.28,20.68,14.62,26.93,7.65,5.74,4.53,21.41-1.91,34.14-4.64,9.17,6.06,17.77-12.31,28.32-7.64,4.39-6,15.43-29.19,17.33C1582.25,764.77,1559.57,759.88,1553.47,763.91Z" transform="translate(-135.76 -355.05)" style="fill:#2c3a64"/><path d="M1499.3,1394.66s0-11.49,1.64-15.32,7.64-19.38,7.64-19.38h23.49s4.36,14.19,4.64,18.84,0,15.86,0,15.86Z" transform="translate(-135.76 -355.05)" style="fill:#233862"/><path d="M1648.4,1394.66s0-11.49-1.64-15.32-7.64-19.38-7.64-19.38h-23.49s-4.37,14.19-4.64,18.84,0,15.86,0,15.86Z" transform="translate(-135.76 -355.05)" style="fill:#233862"/><path d="M1554.32,749.38s-.83,25.6-4.1,37.07l-25.94,18.09,97.62,14.61L1598.62,787s-7-34.33-3.34-47S1554.32,749.38,1554.32,749.38Z" transform="translate(-135.76 -355.05)" style="fill:#b56f40"/><path d="M1554.18,752.92s7.72,18.58,22.26,18.17,17.85-16.85,17.85-16.85Z" transform="translate(-135.76 -355.05)" style="fill:#99592e"/><path d="M1574.77,763.91c-10.53-.18-29.93-14.21-29.93-31.58V705.22c0-6.35,4.43-11.54,9.83-11.54h40.2c5.41,0,9.83,5.19,9.83,11.54v25.57C1604.7,749,1586.86,764.13,1574.77,763.91Z" transform="translate(-135.76 -355.05)" style="fill:#b56f40"/><path d="M1502.24,996.52s4.11,125.46-2,197,0,171.21,0,171.21,19.65,10.83,41,0c0,0,23.36-138.3,23.21-171.21-.16-35,25.42-191.58,25.42-191.58Z" transform="translate(-135.76 -355.05)" style="fill:#ee9849"/><path d="M1647.55,1364.78s-19.64,10.84-40.94,0c0,0-23.36-138.3-23.21-171.21.07-14.81-4.45-51.29-9.71-88.48C1566.51,1054.21,1558,1002,1558,1002l91-5.68s-7.5,125.68-1.36,197.26S1647.55,1364.78,1647.55,1364.78Z" transform="translate(-135.76 -355.05)" style="fill:#ee9849"/><path d="M1631.81,793.06v.05a257.91,257.91,0,0,0-33.19-6.12c-9.06,12-15.56,14.82-23.84,18.1-13.33-1.84-24.56-18.26-24.56-18.64a149.9,149.9,0,0,0-28.3,5.39c-.79.1-43.38,5.72-103.66,128.43,0,0,3.25,11.29,19.06,31,11.24,14,28.86,32.27,56.19,53.74a93.57,93.57,0,0,0,4.93-14.43s-16.24-31.61-26-53c-4.75-10.42-8-18.41-7.05-19.18,1.75-1.47,21.41-18.53,35.92-31.13-.12,3.15-.15,6-.08,8.5.79,27.41,1.89,54-1.64,83.56-4.64,38.77,3.22,38.08,3.22,38.08s10.59,2.07,25.35,4a358,358,0,0,0,45.55,3.48c35.39,0,74.18-7.51,74.18-7.51,11.17.14-3.13-69.47-5.22-111.36-.48-9.73-.93-18.6-1.35-26.72,13.34,11.59,42.88,37.25,45.06,39.07.92.77-2.3,8.76-7.06,19.18-9.78,21.41-26,53-26,53a93.57,93.57,0,0,0,4.93,14.43c27.33-21.47,45-39.74,56.2-53.74,15.81-19.71,19-31,19-31C1672.61,796.41,1631.81,793.06,1631.81,793.06Z" transform="translate(-135.76 -355.05)" style="fill:#b64c41"/><path d="M1528.14,1021.42c-14.76-2-25.35-4-25.35-4s-7.86.69-3.22-38.08c3.53-29.51,2.43-56.15,1.64-83.56-.09-3,0-6.65.17-10.67,2.26,3.63,27.46,44.32,34.24,74.57C1540.56,981.71,1533.11,1007.69,1528.14,1021.42Z" transform="translate(-135.76 -355.05)" style="fill:#aa413e"/><path d="M1583.4,1193.57c.07-14.81-4.45-51.29-9.71-88.48,5.45-22.21,18.72-43.59,18.72-43.59C1609.21,1108.6,1583.4,1193.57,1583.4,1193.57Z" transform="translate(-135.76 -355.05)" style="fill:#e58638"/><path d="M1495.2,992.14s14.75-13.65,20.76-6,7.09,19.66,2.45,18.84-14.2-5.18-15.56-3-7.48,6.36-9.34,3S1495.2,992.14,1495.2,992.14Z" transform="translate(-135.76 -355.05)" style="fill:#b56f40"/><path d="M1498.44,990.58a93.57,93.57,0,0,1-4.93,14.43c-27.33-21.47-45-39.74-56.19-53.74,8.47-.63,20.85-3.67,35.1-13.71C1482.2,959,1498.44,990.58,1498.44,990.58Z" transform="translate(-135.76 -355.05)" style="fill:#b56f40"/><path d="M1656.52,992.14s-14.75-13.65-20.76-6-7.1,19.66-2.45,18.84,14.2-5.18,15.56-3,7.48,6.36,9.34,3S1656.52,992.14,1656.52,992.14Z" transform="translate(-135.76 -355.05)" style="fill:#b56f40"/><path d="M1653.28,990.58a93.57,93.57,0,0,0,4.93,14.43c27.33-21.47,45-39.74,56.19-53.74-8.48-.63-20.85-3.67-35.1-13.71C1669.52,959,1653.28,990.58,1653.28,990.58Z" transform="translate(-135.76 -355.05)" style="fill:#b56f40"/><path d="M1686.36,918.38c-2.19-1.82-31.93-27.67-45.21-39.19,0,0,13.25-9.93,21.44,4.54S1686.36,918.38,1686.36,918.38Z" transform="translate(-135.76 -355.05)" style="fill:#aa413e"/><path d="M1733.46,920.27s-3.24,11.29-19,31C1696.11,951,1733.46,920.27,1733.46,920.27Z" transform="translate(-135.76 -355.05)" style="fill:#aa413e"/><path d="M1544.84,716.21s7.32-22.32,31.28-18.84,26,8.6,28.58,14.54,7.46-21.71,7.46-21.71l-28.26-8.4s-34.2,3.89-36.66,9.63l-2.46,5.73Z" transform="translate(-135.76 -355.05)" style="fill:#2c3a64"/><path d="M1560.11,732.86c-4.13,0-12.41-.92-13.86-8.11a6.48,6.48,0,0,1,1.19-5.59,7.71,7.71,0,0,1,6-2.57h12.72c2.42,0,4.11.69,5,2.07,1.54,2.3.36,5.77-.22,7.15-2,4.73-4.7,6.94-8.58,6.94A21.43,21.43,0,0,1,1560.11,732.86Zm-6.62-15.44a6.86,6.86,0,0,0-5.4,2.27,5.73,5.73,0,0,0-1,4.9c.75,3.69,3.52,6,8.24,7a24.49,24.49,0,0,0,7,.33h.05c3.51,0,6-2,7.83-6.43.41-1,1.64-4.34.29-6.37-.74-1.13-2.2-1.7-4.32-1.7Z" transform="translate(-135.76 -355.05)" style="fill:#2c3a64"/><path d="M1589.44,732.86a21.83,21.83,0,0,1-2.32-.11c-3.87,0-6.59-2.21-8.57-6.94-.58-1.38-1.76-4.85-.22-7.15.91-1.38,2.6-2.07,5-2.07h12.71a7.73,7.73,0,0,1,6.06,2.57,6.51,6.51,0,0,1,1.18,5.59C1601.86,731.94,1593.58,732.86,1589.44,732.86Zm-6.09-15.44c-2.12,0-3.58.57-4.33,1.7-1.35,2-.11,5.38.3,6.37,1.84,4.39,4.32,6.43,7.82,6.43h0a25,25,0,0,0,7.06-.33c4.72-1,7.49-3.31,8.23-7a5.7,5.7,0,0,0-1-4.9,6.88,6.88,0,0,0-5.41-2.27Z" transform="translate(-135.76 -355.05)" style="fill:#2c3a64"/><path d="M1570.22,722.47a.5.5,0,0,1-.2-1c.21-.09,5.19-2.33,9.61,0a.49.49,0,0,1,.21.67.5.5,0,0,1-.68.21c-4-2.11-8.68,0-8.73,0A.54.54,0,0,1,1570.22,722.47Z" transform="translate(-135.76 -355.05)" style="fill:#2c3a64"/><path d="M1489.47,1011.7l-11.64,2.15s-31.84-49.09-32.75-64.06c-.89-14.3-29.58-76.86,4-115.91a61.37,61.37,0,0,1,5-5.16c.06-.07.13-.12.19-.18l.17.27c.68,1.14,3.35,6,6.48,16.62,4.89,16.67,10.95,47.6,12.38,101C1473.26,946.46,1481.07,992.2,1489.47,1011.7Z" transform="translate(-135.76 -355.05)" style="fill:#f4a671"/><path d="M1489.47,1011.7s12.47,14.06,12.85,19.77-4.55,12.88-10.09,14.11-2.08-7.57-2.91-11.11-4.46-8.89-4.24-7.29,2.44,7.88,1.75,8.89-2.47,1.16-3.15-2.19-6.26-7.28-5.16-10.88.19-6.38-1.32-11.21-4-10.62-4-10.62l9-1.92Z" transform="translate(-135.76 -355.05)" style="fill:#f4a671"/><path d="M1405.3,757.6s-.28,5.94,3.28,7.1-3.67,14-3.1,22.63,4.4,12.13,4.4,12.13-1.84-4.76-.81-7.71c0,0-.17,6.13,4.31,9.21s3.26,5.76,3.26,5.76,10.11-3,10.39-10.6a20.38,20.38,0,0,1,.09,4.84s8.72-6.55,9.14-14.1-6.87-13.92-10.19-14-10.72-6.63-10.52-9.09S1405.3,757.6,1405.3,757.6Z" transform="translate(-135.76 -355.05)" style="fill:#2c3a64"/><path d="M1433.22,715.18c-5.88-8.93-29.22-3.93-52.13,11.16s-36.73,34.56-30.85,43.49,29.22,3.93,52.14-11.16S1439.1,724.11,1433.22,715.18Z" transform="translate(-135.76 -355.05)" style="fill:#e2af64"/><path d="M1483.62,1373.92l-12.36,4.6s-53.67-74.44-60.28-139.94c-1.18-11.69-.78-23,1.77-33.48,0,0-.53-3-1.44-8.3-.43-2.47-1-5.44-1.55-8.85-1.74-10-4.14-23.68-6.89-39.26-6.31-35.85-14.49-81.67-20.85-115.35l3.33-1.07,36-11.63,7.44-23.64,26.83-7.06s6,11.72,11.35,67.1c1,7.26,1.88,15.27,2.56,24a474.17,474.17,0,0,1-2.55,97q-1.85,14.43-4.72,29.77c-1.41,7.48-1.62,17.68-1,29.4C1464,1290.71,1483.62,1373.92,1483.62,1373.92Z" transform="translate(-135.76 -355.05)" style="fill:#2b478b"/><path d="M1469.56,1081l-58.25,115.8c-.43-2.47-1-5.44-1.55-8.85-1.74-10-4.14-23.68-6.89-39.26-6.31-35.85-14.49-81.67-20.85-115.35l3.33-1.07,36-11.63,7.44-23.64,32-9.53s.78,14.19,6.14,69.57C1468,1064.3,1468.88,1072.31,1469.56,1081Z" transform="translate(-135.76 -355.05)" style="fill:#233862"/><path d="M1420.32,716.19l-41.19,62.5s-4.71-9.22-9.94-5.91c-8.16,5.15-25.69-12.5-22-37.42.24-1.63.53-3.17.85-4.64,8.22-11.84,17.34-25,23.89-34.3C1390.81,685,1420.32,716.19,1420.32,716.19Z" transform="translate(-135.76 -355.05)" style="fill:#2c3a64"/><path d="M1438.42,842.45a70.26,70.26,0,0,1-23,13.68c-36.38,13.78-55.08-16-63.45-37a32.48,32.48,0,0,1,12.19-5.64c2.67-.69,5.5-1.29,7.84-1.73,3.78-3.8,8.27-17.88,6.87-38.59l1.83.23,30.7,4.08s-.08,9.59.46,18.57c.44,7,1.26,13.69,2.8,15.14,2.38.19,3.81.33,3.81.33l0,0A192.8,192.8,0,0,1,1438.42,842.45Z" transform="translate(-135.76 -355.05)" style="fill:#ffb27d"/><path d="M1411.45,777.43s-.08,9.59.47,18.58c-17,.6-27-14.31-31.17-22.65Z" transform="translate(-135.76 -355.05)" style="fill:#ed985f"/><path d="M1417.66,785.58s-40.1,3.22-41.72-21.78-7.89-41.43,17.65-44.54,31.13,6.11,33.7,14.32S1428.05,784.1,1417.66,785.58Z" transform="translate(-135.76 -355.05)" style="fill:#ffb27d"/><path d="M1425.21,719.75c-6.68-7.12-11.27-5.17-13.75-2.75-22.71-10.66-35.71,8.07-35.71,8.07a47.94,47.94,0,0,1-13.83,29.22s7.6,4.05,24.2-1.36c5.06-1.66,9.43-5.61,13.06-10.3a93.7,93.7,0,0,1-14.87,20.71c19.56-10.59,25.87-39.13,26.48-42.15,2.59,2,7.73,6.52,9.5,11.11,2.41,6.24,4.14,19.29,7.93,18.61C1428.22,750.91,1435.23,730.44,1425.21,719.75Z" transform="translate(-135.76 -355.05)" style="fill:#2c3a64"/><path d="M1522.29,1394.66h-62.23s-2.33-9.93,1.75-16.68c3.62-6,2.24-9.38-.44-14.33a24.07,24.07,0,0,0,10.48,2,22,22,0,0,0,9.26-3.26c2.67,3.06,14.14,16.05,17.73,18.63C1502.91,1383.92,1521,1382.88,1522.29,1394.66Z" transform="translate(-135.76 -355.05)" style="fill:#233862"/><path d="M1346.3,747.67s-18.65-37.12,7.41-51.8,45.13-8.91,59.47,9Z" transform="translate(-135.76 -355.05)" style="fill:#edbd77"/><path d="M1465,849c-5-25-20.45-32.12-20.45-32.12s-2.57-3.9-16.94-4.51c-2.24-.09-4.68-.55-7.4-.77l-1.67-.12,0,0c.55.84,15,23.12,14.23,29.11s-53.57,4-57.39.93c-3.06-2.48-8.39-19-10.37-25.5-.51-1.61-.8-2.6-.8-2.6s-18.42,3.22-27.08,10.39a79.76,79.76,0,0,1,11,16.22c.42.85.82,1.7,1.2,2.57a38.93,38.93,0,0,1,1.93,5.59c.63,2.48.06,5-1.28,7.8a54.67,54.67,0,0,1-5.24,8.17c-1.42,1.9-3,3.92-4.5,6.08,1.09,3.64,2.52,8,4.1,12.94a344.68,344.68,0,0,1,9.91,36.19,34.54,34.54,0,0,1-.35,15.31,35.15,35.15,0,0,1-2,5.82c-1.31,3-1.64,7-3.11,10.82-6,15.62-13,36-6,46.62,4.65,13.6,112.36-19.42,105.11-33.68,0,0,4.3-74.81,7.26-98,.1-.85.18-1.67.22-2.5a35.11,35.11,0,0,0,0-3.84C1464.73,855.7,1465,849,1465,849Z" transform="translate(-135.76 -355.05)" style="fill:#f99746"/><path d="M1451.28,700.83c-5.36-8.6-24.12-7.21-46.78,2.06a187.08,187.08,0,0,0-27.75,14.36,179.25,179.25,0,0,0-30.07,23.24c-15,14.66-22.31,28.7-17.45,36.49,5.39,8.64,24.33,7.19,47.15-2.21-1.85-2-4.45-3.73-7.19-2s-6.73.84-10.51-2.16c-2.79-.45-4.86-1.58-6-3.39a7.15,7.15,0,0,1-.86-4.87c1.17-8.67,13.46-22.15,31.12-33.16,13.57-8.47,27.06-13.45,36.34-14,5.41-.35,9.39.78,11.13,3.58,1.51,2.42,1.18,5.79-.67,9.69a36,36,0,0,1,.61,12.17C1447.67,724.79,1456.51,709.2,1451.28,700.83Z" transform="translate(-135.76 -355.05)" style="fill:#ffcf83"/><path d="M1390.66,942.75a184.3,184.3,0,0,1-42.6,8c1.48-3.81,2.57-7.26,3.88-10.21a35.15,35.15,0,0,0,2-5.82,34.54,34.54,0,0,0,.35-15.31c-2.77-13.5-10.12-36.53-13.38-46.68,8.7-19.41,17.69-8.83,17.69-8.83s26.31,11.8,37.51,33.55S1404.05,938.46,1390.66,942.75Z" transform="translate(-135.76 -355.05)" style="fill:#ed7d2b"/><path d="M1357.09,814.92s25,16,31.45,49.76l7.58-2.41s-2.94-24.09-31.91-48.83Z" transform="translate(-135.76 -355.05)" style="fill:#2b478b"/><path d="M1445.56,865.53l-7.94.52a80.47,80.47,0,0,0-17.43-54.47q4.08.33,7.4.77C1448.36,842.41,1445.56,865.53,1445.56,865.53Z" transform="translate(-135.76 -355.05)" style="fill:#2b478b"/><path d="M1455.4,992.36l5.63-2.42-5.53-83.85s-5.37-38.13-5.45-44.79a12.28,12.28,0,0,0-5.46-9.91s-39.49,2.08-50.62,2.7-10,7-10,7,4.85,20.26,5.34,22.35c7.49,31.84-35.35,51.29-35.35,51.29s-7,18-12.35,35.21c-9.24,29.54-1,71.92-1,71.92,1.41,22.51,4,118.16,6.64,146.46,1,10.26,1.82,17.56,2.17,20.48v0a4,4,0,0,1-.65,2.51,132.67,132.67,0,0,0-9.88,20.77c-26.27,70,4,156.18,4,156.18l7.87-3.17s17.25-95.92,31.26-138.3c2.38-7.18,4.66-12.83,6.75-16.21,6.09-9.83,11.75-25.9,16.88-45,9.7-36.13,17.51-83.14,22.71-119.42.71,0,8.18-50.85,26.91-73.28C1455.47,992.64,1455.5,992.48,1455.4,992.36Z" transform="translate(-135.76 -355.05)" style="fill:#2b478b"/><path d="M1388.23,861.73a3.33,3.33,0,1,1,4.18,2.17A3.31,3.31,0,0,1,1388.23,861.73Z" transform="translate(-135.76 -355.05)" style="fill:#ed7d2b"/><path d="M1388.8,861.55a3.33,3.33,0,1,1,4.17,2.17A3.31,3.31,0,0,1,1388.8,861.55Z" transform="translate(-135.76 -355.05)" style="fill:#f99746"/><path d="M1389.91,860.54a.48.48,0,1,1,.48.49A.48.48,0,0,1,1389.91,860.54Z" transform="translate(-135.76 -355.05)" style="fill:#2b478b"/><path d="M1393.06,860.55a.49.49,0,1,1,.49.48A.49.49,0,0,1,1393.06,860.55Z" transform="translate(-135.76 -355.05)" style="fill:#2b478b"/><path d="M1437.19,857.51a3.33,3.33,0,1,1,4.18,2.16A3.33,3.33,0,0,1,1437.19,857.51Z" transform="translate(-135.76 -355.05)" style="fill:#ed7d2b"/><path d="M1437.76,857.33a3.33,3.33,0,1,1,4.18,2.16A3.33,3.33,0,0,1,1437.76,857.33Z" transform="translate(-135.76 -355.05)" style="fill:#f99746"/><path d="M1438.87,856.32a.48.48,0,1,1,1,0,.47.47,0,0,1-.48.48A.48.48,0,0,1,1438.87,856.32Z" transform="translate(-135.76 -355.05)" style="fill:#2b478b"/><path d="M1442,856.32a.49.49,0,0,1,1,0,.49.49,0,1,1-1,0Z" transform="translate(-135.76 -355.05)" style="fill:#2b478b"/><path d="M1351.83,762.36s-.27,5.94,3.29,7.1-3.67,14-3.1,22.63,4.39,12.13,4.39,12.13-1.83-4.76-.81-7.7c0,0-.16,6.12,4.31,9.21s3.27,5.76,3.27,5.76,10.1-3,10.39-10.61a20,20,0,0,1,.08,4.84s8.73-6.55,9.14-14.1-6.87-13.91-10.18-14-10.72-6.63-10.52-9.09S1351.83,762.36,1351.83,762.36Z" transform="translate(-135.76 -355.05)" style="fill:#2c3a64"/><path d="M1351.88,961.25s12,7.57,13.76,7.51c4.12-.16,12.25-9.15,19-5s13.4,11.09,11.06,13.86-10.3-.5-14.11,0-13.21,5.23-19.84,3c-6.38-2.11-20.16-10.81-20.16-10.81Z" transform="translate(-135.76 -355.05)" style="fill:#ffb27d"/><path d="M1337.13,823.82s-44.68,52.77-59.47,82.5c0,0,17.78,38.7,75.41,70.14a19.74,19.74,0,0,0,6.47-3.35c6.1-4.35-.66-7.54-2-8.41-14.62-9.47-40.17-50.26-40.91-53.8s32-35.29,42-47S1352.6,817.77,1337.13,823.82Z" transform="translate(-135.76 -355.05)" style="fill:#ffb27d"/><path d="M1405.29,771.61s6,3.62,10.23,3.2,6.51-5.5,6.51-5.5A35.4,35.4,0,0,0,1405.29,771.61Z" transform="translate(-135.76 -355.05)" style="fill:#fff2e9"/><path d="M1337.13,823.82l-20.07,19.61s4.58,29,35,32.73c0,0,24.93-20,10-40.75S1337.13,823.82,1337.13,823.82Z" transform="translate(-135.76 -355.05)" style="fill:#f99746"/><path d="M1365.64,968.76a6.4,6.4,0,0,1,3.26-4.07c2.57-1.15,5-3.65,5.18-2.92a3.38,3.38,0,0,1-1,3.43C1371.79,966.68,1369.51,969.15,1365.64,968.76Z" transform="translate(-135.76 -355.05)" style="fill:#ffb27d"/><path d="M1388.66,1394.66h-62.24s-1.49-9.48,1.76-16.68c3.12-6.91,8-10,6.83-18.4,4,4.07,10.4,8.63,19.4,7.42,1.1,1.79,7.11,11.35,10.79,14C1369.27,1383.92,1387.41,1382.88,1388.66,1394.66Z" transform="translate(-135.76 -355.05)" style="fill:#233862"/><path d="M2336.7,1393.69l-1.19-352.23s-2.69-25.38-24.82-25.51c-23.62-.14-25.12,25.21-25.12,25.21a2.67,2.67,0,0,0,2.75,2.21,2.85,2.85,0,0,0,3-2.17s1.16-19.55,19.36-19.44c17.06.1,19.14,19.67,19.14,19.67l-2.1,352.21Z" transform="translate(-135.76 -355.05)" style="fill:#233862"/><path d="M2324.66,1393.62l14.68.09-1.21-15.37s.14-2.13-2.83-2.27c-2.76-.13-8.2-.55-8.73,1.11C2326.11,1378.64,2324.66,1393.62,2324.66,1393.62Z" transform="translate(-135.76 -355.05)" style="fill:#233862"/><path d="M2310.62,997.28l-1,5s-24.9-.24-30.88,26.41c0,0-1.64,11.09,6.38,8.77s6.8-8,18.16-11,18.75-5.37,20.52-13.61l1.91-9.18Z" transform="translate(-135.76 -355.05)" style="fill:#ffb27d"/><path d="M2400,779.42s-6.74,25.88-12.56,49.54c-2.35,9.53-4.54,18.7-6.09,25.67-1.58,7.17-2.49,12-2.15,12.56,4.89,8-4.43,56.89-11.67,74.6-.64,1.57-1.52,3.41-2.57,5.45-10.1,19.51-36.9,57.76-36.9,57.76s-7.5.74-12.4-1.14c-4.08-1.58-6.84-6.59-6.84-6.59,2.39-3.81,12.28-48.94,24.8-74.21,5.36-10.8,13.75-111.31,24.09-124.79C2366.29,787,2400,779.42,2400,779.42Z" transform="translate(-135.76 -355.05)" style="fill:#f99746"/><path d="M2379.17,867.19c4.89,8-4.43,56.89-11.67,74.6-.64,1.57-1.52,3.41-2.57,5.45-9.29-42.26,6.87-101.94,6.87-101.94,3.94,1.59,7.07,4.86,9.52,9.33C2379.74,861.8,2378.83,866.65,2379.17,867.19Z" transform="translate(-135.76 -355.05)" style="fill:#ed7d2b"/><path d="M2445.38,1355.54s2.31,38.21-4.9,38.7c-1,.06-36.58-.15-36.58-.15l-46-.27s.84-11.22,14.15-13.45,35.61-11.45,43.76-29C2424.44,1333,2445.38,1355.54,2445.38,1355.54Z" transform="translate(-135.76 -355.05)" style="fill:#0f2949"/><path d="M2514.49,1356s2.31,38.21-4.91,38.7c-1,.06-36.58-.15-36.58-.15l-45.94-.27s.84-11.22,14.14-13.45,35.61-11.45,43.77-29C2493.55,1333.38,2514.49,1356,2514.49,1356Z" transform="translate(-135.76 -355.05)" style="fill:#163560"/><path d="M2448.11,1263.5c1,16.16,3.21,36.94,2.28,55.65-1.31,26.17-2.26,48.24-2.26,48.24-17.3,5.76-48.92-1.55-48.92-1.55s-10.84-66.21-19.77-119.06c-4-23.69-7.33-44.18-8.56-53.85-4-31.26,5.6-197.31,5.6-197.31s46.87-29.65,66.07-14.1,31,30.69-1.1,199.51C2439,1193.84,2445.79,1227.31,2448.11,1263.5Z" transform="translate(-135.76 -355.05)" style="fill:#2b478b"/><path d="M2448.11,1263.5c1,16.16,3,42,2,60.73-16.13-17.28-47.91-53.71-70.7-77.45-4-23.69-7.33-44.18-8.56-53.85-4-31.26,5.6-197.31,5.6-197.31s46.87-29.65,66.07-14.1,31,30.69-1.1,199.51C2439,1193.84,2445.79,1227.31,2448.11,1263.5Z" transform="translate(-135.76 -355.05)" style="fill:#233862"/><path d="M2418.66,999.25s3.2,166.29,9.57,197.16S2468,1368.6,2468,1368.6s32,3.11,48.84-4c0,0-.68-65.36-6.14-103.79-5.09-35.91-14.42-68.76-13-81.72,19-170.79,6.11-185-14.23-199S2418.66,999.25,2418.66,999.25Z" transform="translate(-135.76 -355.05)" style="fill:#2b478b"/><path d="M2481.94,1014.18s-11.24,22.23,10,39.38c0,0,9.22,6.39,10.69-1.83s-.19-5.36,2.12-16.89-.49-23.47-7.1-28.71Z" transform="translate(-135.76 -355.05)" style="fill:#ffb27d"/><path d="M2389.93,741.69s12.71,19.56,10,37.73l18.7,45.82,34.54-52.12s-18-19.79-24.55-46.66Z" transform="translate(-135.76 -355.05)" style="fill:#ffb27d"/><path d="M2384.21,758.28s46.67,2.3,47.69-25.72,13.74-46.59-21.16-49.26c-28.7-2.2-38.32,9.72-40.94,19S2366.92,756.68,2384.21,758.28Z" transform="translate(-135.76 -355.05)" style="fill:#ffb27d"/><path d="M2497,1007.73c-10,.87-23.85,1.95-40.61,2.9q-5,.29-10.38.56c-50.61,2.53-70.67-5.78-70.67-5.78s-1.33-1.1-.87-7c2.38-30.58,8.93-39.58,8.18-45.4-1.69-13.08-32.75-119.89-32.75-119.89s-.41-33.69,37.14-49.28a88.51,88.51,0,0,1,12.85-4.18c1.62,4.37,6.07,11.67,17.58,10.4,17-1.88,29.19-11.83,34.41-16.94.94,0,1.31,0,1.31,0a100.74,100.74,0,0,1,3.07,11.13c3,13.26,4.71,27.2,12.77,37.66a285.35,285.35,0,0,1,20.56,30.46,252.36,252.36,0,0,1,12.49,24.32C2534.82,950.18,2508.83,1006.69,2497,1007.73Z" transform="translate(-135.76 -355.05)" style="fill:#f99746"/><path d="M2497,1007.73c-10,.87-23.85,1.95-40.61,2.9C2452,928.26,2486,849.38,2486,849.38a29.61,29.61,0,0,1,3.57,3c5.81,5.71,9.83,14.16,12.49,24.32C2511.87,914.09,2503.14,974.7,2497,1007.73Z" transform="translate(-135.76 -355.05)" style="fill:#ed7d2b"/><path d="M2369.32,731.46s-9.3,36,6.09,41.17,56.36,1.34,56.61-42.86c0,0-21.56,12.69-31.83,12.3s-16.85-6.34-26.36-1.77C2373.83,740.3,2370.36,740,2369.32,731.46Z" transform="translate(-135.76 -355.05)" style="fill:#c8d9e8"/><path d="M2453.21,773.12s32.63.93,49.74,23.46c13.1,17.27,26.52,109.59,26.44,123.48s-15.41,90.45-23.79,98.73a31.48,31.48,0,0,1-12.58-.08,25.46,25.46,0,0,1-12.1-6s4.65-85.31,4.7-93.32c.07-11.58-35.74-82.73-35.74-82.73S2431.29,802.83,2453.21,773.12Z" transform="translate(-135.76 -355.05)" style="fill:#f99746"/><path d="M2429.94,692.13c-.76-2.87-4.28-4.39-4.28-4.39-26.23-11.61-45.51.81-45.51.81,16.24-21.54,55.11-16.77,63.19,2.79,13.19,31.94-11.32,38.43-11.32,38.43s-24.37-10.41-10.15-23.2c4.72-4.23,7-8,7.78-11.31h0A11.46,11.46,0,0,0,2429.94,692.13Z" transform="translate(-135.76 -355.05)" style="fill:#c8d9e8"/><path d="M413.47,1394.66s0-11.49,1.64-15.32,7.64-19.38,7.64-19.38h23.49s4.36,14.19,4.64,18.84,0,15.86,0,15.86Z" transform="translate(-135.76 -355.05)" style="fill:#233862"/><path d="M562.57,1394.66s0-11.49-1.64-15.32-7.64-19.38-7.64-19.38H529.8s-4.37,14.19-4.64,18.84,0,15.86,0,15.86Z" transform="translate(-135.76 -355.05)" style="fill:#233862"/><path d="M468.49,749.38s-.83,25.6-4.1,37.07l-25.94,18.09,97.62,14.61L512.79,787s-7-34.33-3.34-47S468.49,749.38,468.49,749.38Z" transform="translate(-135.76 -355.05)" style="fill:#ffb27d"/><path d="M468.35,752.92s7.72,18.58,22.26,18.17,17.85-16.85,17.85-16.85Z" transform="translate(-135.76 -355.05)" style="fill:#ed985f"/><path d="M459.67,737.87s-4.7-23.44-8-30.54-6-38.77,30.31-40.41c0,0,13.92,1.64,21.57-3,0,0,0,4.64-1.91,6.28a24.12,24.12,0,0,1,22.39,7.92c9.83,10.92-6.55,49.15-5.74,58.16Z" transform="translate(-135.76 -355.05)" style="fill:#2c3a64"/><path d="M518.87,705.21v25.58A30.22,30.22,0,0,1,516.23,743h0a38.81,38.81,0,0,1-13.1,15.8c-4.74,3.33-9.83,5.24-14.18,5.16-3.79-.07-8.71-1.92-13.48-5.08-6.41-4.25-12.53-10.86-15.13-18.64l0-.12-.1-.32a24.71,24.71,0,0,1-1.18-7.42V705.21c0-6.34,4.43-11.53,9.84-11.53H509C514.44,693.68,518.87,698.87,518.87,705.21Z" transform="translate(-135.76 -355.05)" style="fill:#ffb27d"/><path d="M459,719.69s.06-16.29,13-18.79,41.78,7.94,45.88-3.94S462,685.28,459,692.86,459,719.69,459,719.69Z" transform="translate(-135.76 -355.05)" style="fill:#2c3a64"/><path d="M416.41,996.52s4.11,125.46-2,197,0,171.21,0,171.21,19.65,10.83,40.95,0c0,0,23.36-138.3,23.21-171.21C478.42,1158.52,504,1002,504,1002Z" transform="translate(-135.76 -355.05)" style="fill:#2b478b"/><path d="M561.72,1364.78s-19.64,10.84-40.94,0c0,0-23.36-138.3-23.21-171.21.07-14.81-4.46-51.29-9.71-88.48-7.18-50.88-15.72-103.1-15.72-103.1l91-5.68s-7.5,125.68-1.36,197.26S561.72,1364.78,561.72,1364.78Z" transform="translate(-135.76 -355.05)" style="fill:#2b478b"/><path d="M442.31,1021.42c-14.76-2-25.35-4-25.35-4s-7.86.69-3.22-38.08c3.53-29.51,2.43-56.15,1.64-83.56-.09-3,0-6.65.17-10.67,2.26,3.63,27.45,44.32,34.24,74.57C454.73,981.71,447.28,1007.69,442.31,1021.42Z" transform="translate(-135.76 -355.05)" style="fill:#ed7d2b"/><path d="M546,793.06v.05A257.91,257.91,0,0,0,512.79,787c-9.06,12-15.56,14.82-23.85,18.1-13.32-1.84-24.55-18.26-24.55-18.64a149.71,149.71,0,0,0-28.3,5.39c-.79.1-43.38,5.72-103.66,128.43,0,0,3.24,11.29,19.05,31,11.25,14,28.87,32.27,56.2,53.74a93.57,93.57,0,0,0,4.93-14.43s-16.24-31.61-26-53c-4.75-10.42-8-18.41-7.06-19.18,1.76-1.47,21.42-18.53,35.93-31.13-.12,3.15-.15,6-.08,8.5.79,27.41,1.89,54-1.64,83.56-4.64,38.77,3.22,38.08,3.22,38.08s10.59,2.07,25.35,4a358,358,0,0,0,45.55,3.48c35.39,0,74.18-7.51,74.18-7.51,11.17.14-3.13-69.47-5.22-111.36-.48-9.73-.93-18.6-1.35-26.72,13.34,11.59,42.88,37.25,45.06,39.07.92.77-2.31,8.76-7.06,19.18-9.78,21.41-26,53-26,53a93.57,93.57,0,0,0,4.93,14.43c27.33-21.47,45-39.74,56.2-53.74,15.81-19.71,19-31,19-31C586.78,796.41,546,793.06,546,793.06Z" transform="translate(-135.76 -355.05)" style="fill:#f99746"/><path d="M497.57,1193.57c.07-14.81-4.46-51.29-9.71-88.48,5.45-22.21,18.72-43.59,18.72-43.59C523.38,1108.6,497.57,1193.57,497.57,1193.57Z" transform="translate(-135.76 -355.05)" style="fill:#233862"/><path d="M409.37,992.14s14.75-13.65,20.75-6,7.1,19.66,2.46,18.84-14.2-5.18-15.56-3-7.48,6.36-9.34,3S409.37,992.14,409.37,992.14Z" transform="translate(-135.76 -355.05)" style="fill:#ffb27d"/><path d="M412.61,990.58a93.57,93.57,0,0,1-4.93,14.43c-27.33-21.47-44.95-39.74-56.2-53.74,8.48-.63,20.86-3.67,35.11-13.71C396.37,959,412.61,990.58,412.61,990.58Z" transform="translate(-135.76 -355.05)" style="fill:#ffb27d"/><path d="M570.69,992.14s-14.75-13.65-20.76-6-7.1,19.66-2.45,18.84,14.19-5.18,15.56-3,7.48,6.36,9.34,3S570.69,992.14,570.69,992.14Z" transform="translate(-135.76 -355.05)" style="fill:#ffb27d"/><path d="M567.44,990.58a94.14,94.14,0,0,0,4.94,14.43c27.32-21.47,45-39.74,56.19-53.74-8.48-.63-20.85-3.67-35.1-13.71C583.69,959,567.44,990.58,567.44,990.58Z" transform="translate(-135.76 -355.05)" style="fill:#ffb27d"/><path d="M503.12,747.48v11.27c-4.74,3.33-9.83,5.24-14.18,5.16-3.79-.07-8.71-1.92-13.48-5.08V747.48A11.48,11.48,0,0,1,486.91,736h4.77A11.48,11.48,0,0,1,503.12,747.48Z" transform="translate(-135.76 -355.05)" style="fill:#2c3a64"/><path d="M600.53,918.38c-2.19-1.82-31.94-27.67-45.21-39.19,0,0,13.25-9.93,21.44,4.54S600.53,918.38,600.53,918.38Z" transform="translate(-135.76 -355.05)" style="fill:#ed7d2b"/><path d="M516.22,743c-5.41,12.31-18,21.13-27.28,21-8.89-.16-24.08-10.17-28.61-23.72l0-.12-.1-.32s9.55,8.14,15.87,4.11h26.52S509.52,747.82,516.22,743Z" transform="translate(-135.76 -355.05)" style="fill:#2c3a64"/><path d="M647.63,920.27s-3.24,11.29-19,31C610.28,951,647.63,920.27,647.63,920.27Z" transform="translate(-135.76 -355.05)" style="fill:#ed7d2b"/><path d="M492.15,746.11h-5.72c-1.31,0-3-2.15-3-3.46a6.3,6.3,0,0,1,3-1.31h5.72c1.32,0,3.23,1.08,3.54,1.86C495.69,743.2,494.9,746.11,492.15,746.11Z" transform="translate(-135.76 -355.05)" style="fill:#ffb27d"/><rect y="1038.2" width="2558.05" height="9.13" rx="3.36" style="fill:#2e3552"/></svg>